<?xml version="1.0" encoding="utf-8" ?>
<svg baseProfile="full" height="100.3215991333127" version="1.1" width="111.68260956183076" xmlns="http://www.w3.org/2000/svg" xmlns:ev="http://www.w3.org/2001/xml-events" xmlns:xlink="http://www.w3.org/1999/xlink"><defs><filter id="id2"><feGaussianBlur in="SourceGraphic" stdDeviation="0" /></filter></defs><rect fill="white" height="100.3215991333127" width="111.68260956183076" x="0" y="0" /><path d="M39.48981702327728,31.949862678302452 m-2.592349946498871,0.01318543334491551 " fill="none" stroke="black" stroke-width="1" /><path d="M36.89746707677841,31.963048111647367 m-3.1279513239860535,-11.631851196289062 l15.618395805358887,11.900019645690918 " fill="none" stroke="black" stroke-width="1" /><path d="M49.387911558151245,32.23121656104922 m-2.5188598036766052,-0.16455529257655144 " fill="none" stroke="black" stroke-width="1" /><path d="M46.86905175447464,32.06666126847267 m-3.3667531609535217,-11.876697540283203 " fill="none" stroke="black" stroke-width="1" /><path d="M43.50229859352112,20.18996372818947 m1.5224838256835938,-5.991775989532471 l0.5848304927349091,-0.4933394491672516 " fill="none" stroke="black" stroke-width="1" /><path d="M45.60961291193962,13.704848289489746 m8.489364981651306,20.965261459350586 " fill="none" stroke="black" stroke-width="1" /><path d="M54.09897789359093,34.67010974884033 m-0.19616937264800072,-1.8573415279388428 " fill="none" stroke="black" stroke-width="1" /><path d="M53.902808520942926,32.81276822090149 m-4.939729869365692,-8.252139687538147 l21.31230115890503,9.276755452156067 " fill="none" stroke="black" stroke-width="1" /><path d="M70.27537981048226,33.83738398551941 m-8.666402101516724,-5.565614104270935 " fill="none" stroke="black" stroke-width="1" /><path d="M61.60897770896554,28.271769881248474 m7.131788730621338,-7.861922979354858 l-15.362745523452759,21.391587257385254 " fill="none" stroke="black" stroke-width="1" /><path d="M53.37802091613412,41.80143415927887 m-0.5661749094724655,-0.8811911195516586 " fill="none" stroke="black" stroke-width="1" /><path d="M52.81184600666165,40.92024303972721 m-1.8624716997146606,-2.609417140483856 " fill="none" stroke="black" stroke-width="1" /><path d="M50.94937430694699,38.310825899243355 m4.451009631156921,-16.428687572479248 l9.094656109809875,15.080476999282837 " fill="none" stroke="black" stroke-width="1" /><path d="M64.49504004791379,36.962615326046944 m-6.941197514533997,-2.6581889390945435 " fill="none" stroke="black" stroke-width="1" /><path d="M57.55384253337979,34.3044263869524 m9.28969919681549,-6.937297582626343 l-6.990379691123962,11.753414869308472 " fill="none" stroke="black" stroke-width="1" /><path d="M59.85316203907132,39.12054367363453 m-1.9477766752243042,0.40722835808992386 " fill="none" stroke="black" stroke-width="1" /><path d="M57.90538536384702,39.52777203172445 m-2.965967357158661,-2.294251024723053 " fill="none" stroke="black" stroke-width="1" /><path d="M54.939418006688356,37.2335210070014 m3.2550525665283203,-11.10777497291565 l-8.764305114746094,3.5774293541908264 " fill="none" stroke="black" stroke-width="1" /><path d="M49.43016545847058,29.703175388276577 m1.2569114565849304,-1.0227134078741074 " fill="none" stroke="black" stroke-width="1" /><path d="M50.68707691505551,28.68046198040247 m10.56401014328003,21.70469045639038 " fill="none" stroke="black" stroke-width="1" /><path d="M61.25108705833554,50.38515243679285 m-3.035520911216736,-3.217115104198456 " fill="none" stroke="black" stroke-width="1" /><path d="M58.21556614711881,47.168037332594395 m3.388361930847168,-15.985580682754517 " fill="none" stroke="black" stroke-width="1" /><path d="M61.603928077965975,31.182456649839878 m3.0873841047286987,-5.821824669837952 l1.8127202987670898,5.474193692207336 " fill="none" stroke="black" stroke-width="1" /><path d="M66.50403248146176,30.834825672209263 m0.6132001429796219,0.5829261243343353 " fill="none" stroke="black" stroke-width="1" /><path d="M67.11723262444139,31.417751796543598 m14.740780591964722,15.943300724029541 " fill="none" stroke="black" stroke-width="1" /><path d="M81.8580132164061,47.36105252057314 m-14.18489694595337,-6.276268362998962 " fill="none" stroke="black" stroke-width="1" /><path d="M67.67311627045274,41.08478415757418 m7.822027206420898,-1.6623926162719727 l-16.729151010513306,24.604055881500244 " fill="none" stroke="black" stroke-width="1" /><path d="M58.76599246636033,64.02644742280245 m0.33685915172100067,-4.590207636356354 " fill="none" stroke="black" stroke-width="1" /><path d="M59.10285161808133,59.436239786446095 m1.3098551332950592,-11.420871019363403 " fill="none" stroke="black" stroke-width="1" /><path d="M60.41270675137639,48.01536876708269 m-1.2036160379648209,-9.63609755039215 l20.0521183013916,14.584488868713379 " fill="none" stroke="black" stroke-width="1" /><path d="M79.26120901480317,52.96376008540392 m-2.342991530895233,-6.769589185714722 " fill="none" stroke="black" stroke-width="1" /><path d="M76.91821748390794,46.1941708996892 m-4.210666716098785,-1.6940374672412872 l22.744574546813965,-0.24750102311372757 " fill="none" stroke="black" stroke-width="1" /><path d="M95.45212531462312,44.25263240933418 m-5.262704491615295,-1.1286894232034683 " fill="none" stroke="black" stroke-width="1" /><path d="M90.18942082300782,43.123942986130714 m-3.0621719360351562,-2.744678556919098 l0.4429982602596283,-1.2790994346141815 " fill="none" stroke="black" stroke-width="1" /><path d="M87.5702471472323,39.100164994597435 m1.0473033040761948,-21.119801998138428 l-19.688035249710083,28.945889472961426 " fill="none" stroke="black" stroke-width="1" /><path d="M68.9295152015984,46.92625246942043 m3.1014567613601685,-5.988597869873047 " fill="none" stroke="black" stroke-width="1" /><path d="M72.03097196295857,40.937654599547386 m2.253555506467819,-13.231703042984009 " fill="none" stroke="black" stroke-width="1" /><path d="M74.2845274694264,27.705951556563377 m3.298068940639496,-5.661517977714539 l-13.763850927352905,19.290508031845093 " fill="none" stroke="black" stroke-width="1" /><path d="M63.818745482712984,41.33494161069393 m-0.8773745596408844,-1.0779911279678345 " fill="none" stroke="black" stroke-width="1" /><path d="M62.9413709230721,40.2569504827261 m-2.1433429419994354,-2.807939052581787 l-0.30727218836545944,-1.3152790069580078 " fill="none" stroke="black" stroke-width="1" /><g filter="url(#id2)" transform="skewX(0) skewY(0) rotate(0)" /></svg>