<?xml version="1.0" encoding="utf-8" ?>
<svg baseProfile="full" height="73.67580223679187" version="1.1" width="69.07529090168063" xmlns="http://www.w3.org/2000/svg" xmlns:ev="http://www.w3.org/2001/xml-events" xmlns:xlink="http://www.w3.org/1999/xlink"><defs><filter id="id1"><feGaussianBlur in="SourceGraphic" stdDeviation="0" /></filter></defs><rect fill="white" height="73.67580223679187" width="69.07529090168063" x="0" y="0" /><path d="M25,31.84466320589717 m0.7854531547750843,5.049341709268404 l-0.22441518707859487,0.5610379676964894 -0.3366227806178945,-1.2342835289322767 l0.8976607483143839,-3.2540202126396376 1.3464911224715748,-1.4586987160108726 l1.6831139030894682,0.7854531547750854 0.11220759353929743,2.356359464325255 l-0.8976607483143828,3.8150581803361274 3.0296050255610423,-5.273756896347 l0.0,-2.3563594643252554 2.5807746514038508,-2.131944277246659 " fill="none" stroke="black" stroke-width="1" /><path d="M33.97660748314383,28.702850586796828 m0.4488303741571914,-0.22441518707859598 l6.84466320589717,-1.1220759353929788 0.44883037415719196,-0.6732455612357868 l-0.6732455612357868,-0.8976607483143828 -0.56103796769649,-0.7854531547750865 " fill="none" stroke="black" stroke-width="1" /><path d="M40.484647908423106,25.0 m-0.3366227806178934,0.0 l-3.9272657738754257,5.947002457582788 -1.3464911224715743,1.0098683418536802 l-1.1220759353929786,0.33662278061789397 -1.0098683418536807,-0.8976607483143834 l0.8976607483143828,-1.1220759353929788 " fill="none" stroke="black" stroke-width="1" /><path d="M33.639984702525936,30.273756896347 m0.2244151870785957,0.3366227806178934 l0.5610379676964894,1.7953214966287667 0.11220759353929799,4.376096148032616 l-0.5610379676964894,-0.44883037415719146 -0.2244151870785957,-1.0098683418536807 l0.5610379676964891,-1.9075290901680635 " fill="none" stroke="black" stroke-width="1" /><path d="M34.313230263761724,33.41556951544734 m0.22441518707859598,-0.4488303741571914 l2.468567057864553,-1.2342835289322767 1.4586987160108722,-0.4488303741571914 l1.4586987160108722,-0.11220759353929854 1.1220759353929792,0.56103796769649 l-0.8976607483143834,0.8976607483143828 -1.4586987160108722,0.5610379676964894 l-3.1418126191003406,4.488303741571915 1.0098683418536807,0.3366227806178937 l3.815058180336127,-2.0197366837073614 -3.815058180336127,4.937134115729107 l4.488303741571915,-3.3662278061789364 3.029605025561042,0.897660748314383 l-4.039473367414723,0.897660748314383 0.3366227806178934,7.069078392975765 l-0.5610379676964894,2.2441518707859576 -4.376096148032616,-5.610379676964894 l-1.1220759353929788,0.5610379676964894 0.0,0.6732455612357879 l5.83479486404349,-1.5709063095501707 1.4586987160108726,0.22441518707859598 l1.5709063095501696,1.2342835289322762 0.3366227806178934,-0.6732455612357868 " fill="none" stroke="black" stroke-width="1" /><g filter="url(#id1)" transform="skewX(0) skewY(0) rotate(0)" /></svg>