<?xml version="1.0" encoding="utf-8" ?>
<svg baseProfile="full" height="67.93037932565416" version="1.1" width="69.32496438431615" xmlns="http://www.w3.org/2000/svg" xmlns:ev="http://www.w3.org/2001/xml-events" xmlns:xlink="http://www.w3.org/1999/xlink"><defs><filter id="id1"><feGaussianBlur in="SourceGraphic" stdDeviation="0" /></filter></defs><rect fill="white" height="67.93037932565416" width="69.32496438431615" x="0" y="0" /><path d="M26.09574540323442,29.881047705316966 m5.777566671599673,-1.9922643695171287 " fill="none" stroke="black" stroke-width="1" /><path d="M31.873312074834093,27.888783335799836 m-2.3907172434205544,-1.3945850586619901 " fill="none" stroke="black" stroke-width="1" /><path d="M29.48259483141354,26.494198277137848 m-1.892651151041273,6.474859200930669 " fill="none" stroke="black" stroke-width="1" /><path d="M27.589943680372265,32.969057478068514 m-2.191490806468841,1.3945850586619901 " fill="none" stroke="black" stroke-width="1" /><path d="M25.398452873903427,34.36364253673051 m6.1760195455031,-2.390717243420555 " fill="none" stroke="black" stroke-width="1" /><path d="M31.574472419406526,31.972925293309952 m-0.5976793108551387,1.4941982771378466 " fill="none" stroke="black" stroke-width="1" /><path d="M30.976793108551387,33.4671235704478 m-0.49806609237928234,9.463255755206362 " fill="none" stroke="black" stroke-width="1" /><path d="M30.478727016172105,42.93037932565416 m-4.0841419575101146,-5.478727016172105 " fill="none" stroke="black" stroke-width="1" /><path d="M26.39458505866199,37.45165230948206 m-1.3945850586619901,2.6895568988481235 " fill="none" stroke="black" stroke-width="1" /><path d="M25.0,40.14120920833018 m0.8965189662827089,-1.2949718401861336 " fill="none" stroke="black" stroke-width="1" /><path d="M25.89651896628271,38.846237368144045 m6.6740856378823805,-3.4864626466549753 l0.9961321847585644,2.4903304618964106 " fill="none" stroke="black" stroke-width="1" /><path d="M33.566736788923656,37.85010518338548 m0.19922643695171288,-2.1914908064688414 " fill="none" stroke="black" stroke-width="1" /><path d="M33.76596322587537,35.65861437691664 m1.9922643695171287,-6.474859200930669 l4.980660923792822,-1.1953586217102774 " fill="none" stroke="black" stroke-width="1" /><path d="M40.738888519185316,27.988396554275692 m-1.1953586217102774,-0.49806609237928123 " fill="none" stroke="black" stroke-width="1" /><path d="M39.54352989747504,27.49033046189641 m-1.2949718401861336,-2.4903304618964115 l-0.29883965542756963,4.980660923792822 " fill="none" stroke="black" stroke-width="1" /><path d="M37.94971840186133,29.98066092379282 m-3.586075865130832,3.4864626466549753 " fill="none" stroke="black" stroke-width="1" /><path d="M34.3636425367305,33.4671235704478 m3.6856890836066882,-1.4941982771378466 " fill="none" stroke="black" stroke-width="1" /><path d="M38.04933162033719,31.97292529330995 m-1.1953586217102774,7.172151730261664 " fill="none" stroke="black" stroke-width="1" /><path d="M36.853972998626915,39.145077023571616 m3.08800977275155,-5.9767931085513855 " fill="none" stroke="black" stroke-width="1" /><path d="M39.94198277137846,33.168283915020226 m0.09961321847585691,8.66635000739951 " fill="none" stroke="black" stroke-width="1" /><path d="M40.04159598985432,41.83463392241974 m-3.984528739034258,-3.4864626466549757 " fill="none" stroke="black" stroke-width="1" /><path d="M36.05706725082007,38.34817127576476 m-1.1953586217102772,-0.19922643695171272 " fill="none" stroke="black" stroke-width="1" /><path d="M34.861708629109785,38.14894483881305 m-0.49806609237928223,0.6972925293309951 l-0.4980660923792822,1.5938114956137033 " fill="none" stroke="black" stroke-width="1" /><path d="M33.86557644435122,40.440048863757745 m3.187622991227406,-1.793037932565416 " fill="none" stroke="black" stroke-width="1" /><path d="M37.053199435578634,38.64701093119233 m5.379113797696249,-1.793037932565416 l1.8926511510412714,1.9922643695171287 " fill="none" stroke="black" stroke-width="1" /><g filter="url(#id1)" transform="skewX(0) skewY(0) rotate(0)" /></svg>