<?xml version="1.0" encoding="utf-8" ?>
<svg baseProfile="full" height="75.21443319977976" version="1.1" width="72.8797634590594" xmlns="http://www.w3.org/2000/svg" xmlns:ev="http://www.w3.org/2001/xml-events" xmlns:xlink="http://www.w3.org/1999/xlink"><defs><filter id="id1"><feGaussianBlur in="SourceGraphic" stdDeviation="0" /></filter></defs><rect fill="white" height="75.21443319977976" width="72.8797634590594" x="0" y="0" /><path d="M27.6848702018284,33.28807757955724 m0.0,0.0 l2.8016036888644167,2.8016036888644167 0.4669339481440704,2.8016036888644167 l-0.4669339481440704,2.3346697407203476 -5.4864738906928165,12.140282651745805 " fill="none" stroke="black" stroke-width="1" /><path d="M27.6848702018284,33.28807757955724 m0.0,0.0 l2.8016036888644167,2.8016036888644167 0.4669339481440704,2.8016036888644167 l-0.4669339481440704,2.3346697407203476 -5.4864738906928165,12.140282651745805 m0.0,0.7004009222161045 l5.9534078388368865,-5.836674351800869 1.1673348703601738,-1.8677357925762776 l6.303608299944938,-29.650305707148412 " fill="none" stroke="black" stroke-width="1" /><path d="M27.6848702018284,33.28807757955724 m0.0,0.0 l2.8016036888644167,2.8016036888644167 0.4669339481440704,2.8016036888644167 l-0.4669339481440704,2.3346697407203476 -5.4864738906928165,12.140282651745805 m0.0,0.7004009222161045 l5.9534078388368865,-5.836674351800869 1.1673348703601738,-1.8677357925762776 l6.303608299944938,-29.650305707148412 m0.8171344092521217,0.4669339481440682 l1.5175353314682256,3.5020046110805225 -0.23346697407203465,1.8677357925762772 l-0.7004009222161042,1.634268818504243 -5.71994086476485,3.5020046110805203 " fill="none" stroke="black" stroke-width="1" /><path d="M27.6848702018284,33.28807757955724 m0.0,0.0 l2.8016036888644167,2.8016036888644167 0.4669339481440704,2.8016036888644167 l-0.4669339481440704,2.3346697407203476 -5.4864738906928165,12.140282651745805 m0.0,0.7004009222161045 l5.9534078388368865,-5.836674351800869 1.1673348703601738,-1.8677357925762776 l6.303608299944938,-29.650305707148412 m0.8171344092521217,0.4669339481440682 l1.5175353314682256,3.5020046110805225 -0.23346697407203465,1.8677357925762772 l-0.7004009222161042,1.634268818504243 -5.71994086476485,3.5020046110805203 m7.4709431703051115,-3.9689385592245907 l5.0195399425487475,0.2334669740720341 -0.35020046110805225,0.23346697407203632 l-9.80561291102546,2.3346697407203476 " fill="none" stroke="black" stroke-width="1" /><path d="M27.6848702018284,33.28807757955724 m0.0,0.0 l2.8016036888644167,2.8016036888644167 0.4669339481440704,2.8016036888644167 l-0.4669339481440704,2.3346697407203476 -5.4864738906928165,12.140282651745805 m0.0,0.7004009222161045 l5.9534078388368865,-5.836674351800869 1.1673348703601738,-1.8677357925762776 l6.303608299944938,-29.650305707148412 m0.8171344092521217,0.4669339481440682 l1.5175353314682256,3.5020046110805225 -0.23346697407203465,1.8677357925762772 l-0.7004009222161042,1.634268818504243 -5.71994086476485,3.5020046110805203 m7.4709431703051115,-3.9689385592245907 l5.0195399425487475,0.2334669740720341 -0.35020046110805225,0.23346697407203632 l-9.80561291102546,2.3346697407203476 m-0.700400922216104,18.67735792576278 l-1.7510023055402613,10.506013833241562 -1.9844692796122954,6.537075274016974 l5.3697404036568,-28.94990478493231 " fill="none" stroke="black" stroke-width="1" /><path d="M27.6848702018284,33.28807757955724 m0.0,0.0 l2.8016036888644167,2.8016036888644167 0.4669339481440704,2.8016036888644167 l-0.4669339481440704,2.3346697407203476 -5.4864738906928165,12.140282651745805 m0.0,0.7004009222161045 l5.9534078388368865,-5.836674351800869 1.1673348703601738,-1.8677357925762776 l6.303608299944938,-29.650305707148412 m0.8171344092521217,0.4669339481440682 l1.5175353314682256,3.5020046110805225 -0.23346697407203465,1.8677357925762772 l-0.7004009222161042,1.634268818504243 -5.71994086476485,3.5020046110805203 m7.4709431703051115,-3.9689385592245907 l5.0195399425487475,0.2334669740720341 -0.35020046110805225,0.23346697407203632 l-9.80561291102546,2.3346697407203476 m-0.700400922216104,18.67735792576278 l-1.7510023055402613,10.506013833241562 -1.9844692796122954,6.537075274016974 l5.3697404036568,-28.94990478493231 m0.1167334870360176,1.1673348703601738 l1.284068357396191,11.439881729529704 0.0,0.2334669740720352 l0.9338678962881392,-14.241485418394118 " fill="none" stroke="black" stroke-width="1" /><path d="M27.6848702018284,33.28807757955724 m0.0,0.0 l2.8016036888644167,2.8016036888644167 0.4669339481440704,2.8016036888644167 l-0.4669339481440704,2.3346697407203476 -5.4864738906928165,12.140282651745805 m0.0,0.7004009222161045 l5.9534078388368865,-5.836674351800869 1.1673348703601738,-1.8677357925762776 l6.303608299944938,-29.650305707148412 m0.8171344092521217,0.4669339481440682 l1.5175353314682256,3.5020046110805225 -0.23346697407203465,1.8677357925762772 l-0.7004009222161042,1.634268818504243 -5.71994086476485,3.5020046110805203 m7.4709431703051115,-3.9689385592245907 l5.0195399425487475,0.2334669740720341 -0.35020046110805225,0.23346697407203632 l-9.80561291102546,2.3346697407203476 m-0.700400922216104,18.67735792576278 l-1.7510023055402613,10.506013833241562 -1.9844692796122954,6.537075274016974 l5.3697404036568,-28.94990478493231 m0.1167334870360176,1.1673348703601738 l1.284068357396191,11.439881729529704 0.0,0.2334669740720352 l0.9338678962881392,-14.241485418394118 m5.836674351800869,-1.8677357925762794 l1.1673348703601738,1.167334870360175 -1.0506013833241568,8.87174501473732 l-1.0506013833241556,3.035070662936452 -0.5836674351800875,0.9338678962881392 l-0.9338678962881386,0.9338678962881392 -4.90280645551273,-6.537075274016973 " fill="none" stroke="black" stroke-width="1" /><path d="M27.6848702018284,33.28807757955724 m0.0,0.0 l2.8016036888644167,2.8016036888644167 0.4669339481440704,2.8016036888644167 l-0.4669339481440704,2.3346697407203476 -5.4864738906928165,12.140282651745805 m0.0,0.7004009222161045 l5.9534078388368865,-5.836674351800869 1.1673348703601738,-1.8677357925762776 l6.303608299944938,-29.650305707148412 m0.8171344092521217,0.4669339481440682 l1.5175353314682256,3.5020046110805225 -0.23346697407203465,1.8677357925762772 l-0.7004009222161042,1.634268818504243 -5.71994086476485,3.5020046110805203 m7.4709431703051115,-3.9689385592245907 l5.0195399425487475,0.2334669740720341 -0.35020046110805225,0.23346697407203632 l-9.80561291102546,2.3346697407203476 m-0.700400922216104,18.67735792576278 l-1.7510023055402613,10.506013833241562 -1.9844692796122954,6.537075274016974 l5.3697404036568,-28.94990478493231 m0.1167334870360176,1.1673348703601738 l1.284068357396191,11.439881729529704 0.0,0.2334669740720352 l0.9338678962881392,-14.241485418394118 m5.836674351800869,-1.8677357925762794 l1.1673348703601738,1.167334870360175 -1.0506013833241568,8.87174501473732 l-1.0506013833241556,3.035070662936452 -0.5836674351800875,0.9338678962881392 l-0.9338678962881386,0.9338678962881392 -4.90280645551273,-6.537075274016973 m5.836674351800869,-2.5681367147923826 l0.2334669740720352,-0.4669339481440693 -1.0506013833241568,-2.8016036888644167 " fill="none" stroke="black" stroke-width="1" /><path d="M27.6848702018284,33.28807757955724 m0.0,0.0 l2.8016036888644167,2.8016036888644167 0.4669339481440704,2.8016036888644167 l-0.4669339481440704,2.3346697407203476 -5.4864738906928165,12.140282651745805 m0.0,0.7004009222161045 l5.9534078388368865,-5.836674351800869 1.1673348703601738,-1.8677357925762776 l6.303608299944938,-29.650305707148412 m0.8171344092521217,0.4669339481440682 l1.5175353314682256,3.5020046110805225 -0.23346697407203465,1.8677357925762772 l-0.7004009222161042,1.634268818504243 -5.71994086476485,3.5020046110805203 m7.4709431703051115,-3.9689385592245907 l5.0195399425487475,0.2334669740720341 -0.35020046110805225,0.23346697407203632 l-9.80561291102546,2.3346697407203476 m-0.700400922216104,18.67735792576278 l-1.7510023055402613,10.506013833241562 -1.9844692796122954,6.537075274016974 l5.3697404036568,-28.94990478493231 m0.1167334870360176,1.1673348703601738 l1.284068357396191,11.439881729529704 0.0,0.2334669740720352 l0.9338678962881392,-14.241485418394118 m5.836674351800869,-1.8677357925762794 l1.1673348703601738,1.167334870360175 -1.0506013833241568,8.87174501473732 l-1.0506013833241556,3.035070662936452 -0.5836674351800875,0.9338678962881392 l-0.9338678962881386,0.9338678962881392 -4.90280645551273,-6.537075274016973 m5.836674351800869,-2.5681367147923826 l0.2334669740720352,-0.4669339481440693 -1.0506013833241568,-2.8016036888644167 m-0.35020046110805225,1.1673348703601738 l-1.4008018444322083,9.33867896288139 -0.7004009222161042,2.1012027666483126 l-3.7354715851525557,0.0 " fill="none" stroke="black" stroke-width="1" /><path d="M27.6848702018284,33.28807757955724 m0.0,0.0 l2.8016036888644167,2.8016036888644167 0.4669339481440704,2.8016036888644167 l-0.4669339481440704,2.3346697407203476 -5.4864738906928165,12.140282651745805 m0.0,0.7004009222161045 l5.9534078388368865,-5.836674351800869 1.1673348703601738,-1.8677357925762776 l6.303608299944938,-29.650305707148412 m0.8171344092521217,0.4669339481440682 l1.5175353314682256,3.5020046110805225 -0.23346697407203465,1.8677357925762772 l-0.7004009222161042,1.634268818504243 -5.71994086476485,3.5020046110805203 m7.4709431703051115,-3.9689385592245907 l5.0195399425487475,0.2334669740720341 -0.35020046110805225,0.23346697407203632 l-9.80561291102546,2.3346697407203476 m-0.700400922216104,18.67735792576278 l-1.7510023055402613,10.506013833241562 -1.9844692796122954,6.537075274016974 l5.3697404036568,-28.94990478493231 m0.1167334870360176,1.1673348703601738 l1.284068357396191,11.439881729529704 0.0,0.2334669740720352 l0.9338678962881392,-14.241485418394118 m5.836674351800869,-1.8677357925762794 l1.1673348703601738,1.167334870360175 -1.0506013833241568,8.87174501473732 l-1.0506013833241556,3.035070662936452 -0.5836674351800875,0.9338678962881392 l-0.9338678962881386,0.9338678962881392 -4.90280645551273,-6.537075274016973 m5.836674351800869,-2.5681367147923826 l0.2334669740720352,-0.4669339481440693 -1.0506013833241568,-2.8016036888644167 m-0.35020046110805225,1.1673348703601738 l-1.4008018444322083,9.33867896288139 -0.7004009222161042,2.1012027666483126 l-3.7354715851525557,0.0 m5.4864738906928165,-2.568136714792382 l1.2840683573961909,0.0 1.2840683573961913,0.46693394814406947 l0.0,0.7004009222161042 -10.15581337213351,10.972947781385633 " fill="none" stroke="black" stroke-width="1" /><path d="M27.6848702018284,33.28807757955724 m0.0,0.0 l2.8016036888644167,2.8016036888644167 0.4669339481440704,2.8016036888644167 l-0.4669339481440704,2.3346697407203476 -5.4864738906928165,12.140282651745805 m0.0,0.7004009222161045 l5.9534078388368865,-5.836674351800869 1.1673348703601738,-1.8677357925762776 l6.303608299944938,-29.650305707148412 m0.8171344092521217,0.4669339481440682 l1.5175353314682256,3.5020046110805225 -0.23346697407203465,1.8677357925762772 l-0.7004009222161042,1.634268818504243 -5.71994086476485,3.5020046110805203 m7.4709431703051115,-3.9689385592245907 l5.0195399425487475,0.2334669740720341 -0.35020046110805225,0.23346697407203632 l-9.80561291102546,2.3346697407203476 m-0.700400922216104,18.67735792576278 l-1.7510023055402613,10.506013833241562 -1.9844692796122954,6.537075274016974 l5.3697404036568,-28.94990478493231 m0.1167334870360176,1.1673348703601738 l1.284068357396191,11.439881729529704 0.0,0.2334669740720352 l0.9338678962881392,-14.241485418394118 m5.836674351800869,-1.8677357925762794 l1.1673348703601738,1.167334870360175 -1.0506013833241568,8.87174501473732 l-1.0506013833241556,3.035070662936452 -0.5836674351800875,0.9338678962881392 l-0.9338678962881386,0.9338678962881392 -4.90280645551273,-6.537075274016973 m5.836674351800869,-2.5681367147923826 l0.2334669740720352,-0.4669339481440693 -1.0506013833241568,-2.8016036888644167 m-0.35020046110805225,1.1673348703601738 l-1.4008018444322083,9.33867896288139 -0.7004009222161042,2.1012027666483126 l-3.7354715851525557,0.0 m5.4864738906928165,-2.568136714792382 l1.2840683573961909,0.0 1.2840683573961913,0.46693394814406947 l0.0,0.7004009222161042 -10.15581337213351,10.972947781385633 m11.206414755457667,-3.035070662936452 l1.7510023055402602,-1.634268818504243 -0.35020046110805225,-0.7004009222161045 l-7.821143631413164,-4.43587250736866 " fill="none" stroke="black" stroke-width="1" /><path d="M27.6848702018284,33.28807757955724 m0.0,0.0 l2.8016036888644167,2.8016036888644167 0.4669339481440704,2.8016036888644167 l-0.4669339481440704,2.3346697407203476 -5.4864738906928165,12.140282651745805 m0.0,0.7004009222161045 l5.9534078388368865,-5.836674351800869 1.1673348703601738,-1.8677357925762776 l6.303608299944938,-29.650305707148412 m0.8171344092521217,0.4669339481440682 l1.5175353314682256,3.5020046110805225 -0.23346697407203465,1.8677357925762772 l-0.7004009222161042,1.634268818504243 -5.71994086476485,3.5020046110805203 m7.4709431703051115,-3.9689385592245907 l5.0195399425487475,0.2334669740720341 -0.35020046110805225,0.23346697407203632 l-9.80561291102546,2.3346697407203476 m-0.700400922216104,18.67735792576278 l-1.7510023055402613,10.506013833241562 -1.9844692796122954,6.537075274016974 l5.3697404036568,-28.94990478493231 m0.1167334870360176,1.1673348703601738 l1.284068357396191,11.439881729529704 0.0,0.2334669740720352 l0.9338678962881392,-14.241485418394118 m5.836674351800869,-1.8677357925762794 l1.1673348703601738,1.167334870360175 -1.0506013833241568,8.87174501473732 l-1.0506013833241556,3.035070662936452 -0.5836674351800875,0.9338678962881392 l-0.9338678962881386,0.9338678962881392 -4.90280645551273,-6.537075274016973 m5.836674351800869,-2.5681367147923826 l0.2334669740720352,-0.4669339481440693 -1.0506013833241568,-2.8016036888644167 m-0.35020046110805225,1.1673348703601738 l-1.4008018444322083,9.33867896288139 -0.7004009222161042,2.1012027666483126 l-3.7354715851525557,0.0 m5.4864738906928165,-2.568136714792382 l1.2840683573961909,0.0 1.2840683573961913,0.46693394814406947 l0.0,0.7004009222161042 -10.15581337213351,10.972947781385633 m11.206414755457667,-3.035070662936452 l1.7510023055402602,-1.634268818504243 -0.35020046110805225,-0.7004009222161045 l-7.821143631413164,-4.43587250736866 m0.1167334870360174,11.439881729529704 l-0.8171344092521217,4.669339481440695 -0.35020046110805214,1.167334870360175 l-0.2334669740720348,0.2334669740720341 4.786072968476712,-16.576155159114467 " fill="none" stroke="black" stroke-width="1" /><path d="M27.6848702018284,33.28807757955724 m0.0,0.0 l2.8016036888644167,2.8016036888644167 0.4669339481440704,2.8016036888644167 l-0.4669339481440704,2.3346697407203476 -5.4864738906928165,12.140282651745805 m0.0,0.7004009222161045 l5.9534078388368865,-5.836674351800869 1.1673348703601738,-1.8677357925762776 l6.303608299944938,-29.650305707148412 m0.8171344092521217,0.4669339481440682 l1.5175353314682256,3.5020046110805225 -0.23346697407203465,1.8677357925762772 l-0.7004009222161042,1.634268818504243 -5.71994086476485,3.5020046110805203 m7.4709431703051115,-3.9689385592245907 l5.0195399425487475,0.2334669740720341 -0.35020046110805225,0.23346697407203632 l-9.80561291102546,2.3346697407203476 m-0.700400922216104,18.67735792576278 l-1.7510023055402613,10.506013833241562 -1.9844692796122954,6.537075274016974 l5.3697404036568,-28.94990478493231 m0.1167334870360176,1.1673348703601738 l1.284068357396191,11.439881729529704 0.0,0.2334669740720352 l0.9338678962881392,-14.241485418394118 m5.836674351800869,-1.8677357925762794 l1.1673348703601738,1.167334870360175 -1.0506013833241568,8.87174501473732 l-1.0506013833241556,3.035070662936452 -0.5836674351800875,0.9338678962881392 l-0.9338678962881386,0.9338678962881392 -4.90280645551273,-6.537075274016973 m5.836674351800869,-2.5681367147923826 l0.2334669740720352,-0.4669339481440693 -1.0506013833241568,-2.8016036888644167 m-0.35020046110805225,1.1673348703601738 l-1.4008018444322083,9.33867896288139 -0.7004009222161042,2.1012027666483126 l-3.7354715851525557,0.0 m5.4864738906928165,-2.568136714792382 l1.2840683573961909,0.0 1.2840683573961913,0.46693394814406947 l0.0,0.7004009222161042 -10.15581337213351,10.972947781385633 m11.206414755457667,-3.035070662936452 l1.7510023055402602,-1.634268818504243 -0.35020046110805225,-0.7004009222161045 l-7.821143631413164,-4.43587250736866 m0.1167334870360174,11.439881729529704 l-0.8171344092521217,4.669339481440695 -0.35020046110805214,1.167334870360175 l-0.2334669740720348,0.2334669740720341 4.786072968476712,-16.576155159114467 m0.1167334870360176,21.24549464055516 " fill="none" stroke="black" stroke-width="1" /><g filter="url(#id1)" transform="skewX(0) skewY(0) rotate(0)" /></svg>