<?xml version="1.0" encoding="utf-8" ?>
<svg baseProfile="full" height="73.65812683592367" version="1.1" width="72.09980710421613" xmlns="http://www.w3.org/2000/svg" xmlns:ev="http://www.w3.org/2001/xml-events" xmlns:xlink="http://www.w3.org/1999/xlink"><defs><filter id="id1"><feGaussianBlur in="SourceGraphic" stdDeviation="0" /></filter></defs><rect fill="white" height="73.65812683592367" width="72.09980710421613" x="0" y="0" /><path d="M33.49992580931389,30.241620915743567 m0.0,0.0 l0.2833308603104634,-1.4166543015523159 0.5666617206209257,-0.8499925809313891 l-1.558319731707547,28.333086031046307 -0.5666617206209257,-1.1333234412418514 l-0.14166543015523225,-3.399970323725557 4.108297474501715,-29.183078611977695 " fill="none" stroke="black" stroke-width="1" /><path d="M33.49992580931389,30.241620915743567 m0.0,0.0 l0.2833308603104634,-1.4166543015523159 0.5666617206209257,-0.8499925809313891 l-1.558319731707547,28.333086031046307 -0.5666617206209257,-1.1333234412418514 l-0.14166543015523225,-3.399970323725557 4.108297474501715,-29.183078611977695 m0.4249962904656948,-1.4166543015523159 l1.2749888713970836,-0.8499925809313913 5.3832863458987985,-0.5666617206209246 l-0.2833308603104634,35.41635753880788 -0.9916580110866208,11.899896133039448 l-2.6916431729493993,-2.266646882483707 -1.2749888713970838,-3.116639463415092 l-0.7083271507761577,-5.666617206209261 -2.8333086031046304,-21.533145383595194 " fill="none" stroke="black" stroke-width="1" /><path d="M33.49992580931389,30.241620915743567 m0.0,0.0 l0.2833308603104634,-1.4166543015523159 0.5666617206209257,-0.8499925809313891 l-1.558319731707547,28.333086031046307 -0.5666617206209257,-1.1333234412418514 l-0.14166543015523225,-3.399970323725557 4.108297474501715,-29.183078611977695 m0.4249962904656948,-1.4166543015523159 l1.2749888713970836,-0.8499925809313913 5.3832863458987985,-0.5666617206209246 l-0.2833308603104634,35.41635753880788 -0.9916580110866208,11.899896133039448 l-2.6916431729493993,-2.266646882483707 -1.2749888713970838,-3.116639463415092 l-0.7083271507761577,-5.666617206209261 -2.8333086031046304,-21.533145383595194 m0.2833308603104634,-1.1333234412418525 l0.28333086031046284,-0.2833308603104623 2.5499777427941677,1.6999851618627781 l0.7083271507761576,1.1333234412418525 0.7083271507761576,1.6999851618627781 l-0.7083271507761576,0.5666617206209257 -13.0332195742813,10.766572691797597 " fill="none" stroke="black" stroke-width="1" /><path d="M33.49992580931389,30.241620915743567 m0.0,0.0 l0.2833308603104634,-1.4166543015523159 0.5666617206209257,-0.8499925809313891 l-1.558319731707547,28.333086031046307 -0.5666617206209257,-1.1333234412418514 l-0.14166543015523225,-3.399970323725557 4.108297474501715,-29.183078611977695 m0.4249962904656948,-1.4166543015523159 l1.2749888713970836,-0.8499925809313913 5.3832863458987985,-0.5666617206209246 l-0.2833308603104634,35.41635753880788 -0.9916580110866208,11.899896133039448 l-2.6916431729493993,-2.266646882483707 -1.2749888713970838,-3.116639463415092 l-0.7083271507761577,-5.666617206209261 -2.8333086031046304,-21.533145383595194 m0.2833308603104634,-1.1333234412418525 l0.28333086031046284,-0.2833308603104623 2.5499777427941677,1.6999851618627781 l0.7083271507761576,1.1333234412418525 0.7083271507761576,1.6999851618627781 l-0.7083271507761576,0.5666617206209257 -13.0332195742813,10.766572691797597 m-0.2833308603104645,0.2833308603104634 l21.958141674060887,-3.3999703237255567 0.14166543015523114,-0.5666617206209262 " fill="none" stroke="black" stroke-width="1" /><g filter="url(#id1)" transform="skewX(0) skewY(0) rotate(0)" /></svg>