<?xml version="1.0" encoding="utf-8" ?>
<svg baseProfile="full" height="66.59897433674543" version="1.1" width="66.39148715753609" xmlns="http://www.w3.org/2000/svg" xmlns:ev="http://www.w3.org/2001/xml-events" xmlns:xlink="http://www.w3.org/1999/xlink"><defs><filter id="id1"><feGaussianBlur in="SourceGraphic" stdDeviation="0" /></filter></defs><rect fill="white" height="66.59897433674543" width="66.39148715753609" x="0" y="0" /><path d="M25.311230768813974,26.141179485651246 m1.452410254465225,0.20748717920931803 l-0.31123076881397704,1.244923075255907 -0.41497435841863606,0.622461537627953 l-0.518717948023294,1.556153844069883 -0.518717948023294,8.506974347582027 l0.31123076881397593,2.5935897401164723 1.556153844069883,-9.336923064419299 l2.8010769193257903,-2.904820508930449 " fill="none" stroke="black" stroke-width="1" /><path d="M29.668461532209648,28.63102563616306 m0.726205127232612,-0.518717948023294 l3.631025636163061,-1.452410254465224 2.178615381697836,-0.10374358960465901 l-3.423538456953743,-1.556153844069883 0.20748717920931775,3.216051277744425 l-0.7262051272326122,2.593589740116472 -0.8299487168372711,1.2449230752559064 l-0.726205127232612,0.20748717920931775 2.9048205089304484,-1.0374358960465886 l-2.074871792093177,1.659897433674542 -0.31123076881397677,2.593589740116472 l0.20748717920931775,0.5187179480232942 0.8299487168372711,-1.556153844069883 l1.86738461288386,-0.6224615376279533 0.20748717920931775,0.3112307688139766 l-1.3486666648605654,2.074871792093177 -0.829948716837271,0.31123076881397677 l-1.1411794856512476,-0.5187179480232945 -0.8299487168372712,1.763641023279201 l0.20748717920931803,0.5187179480232945 0.7262051272326122,0.3112307688139765 l3.73476922576772,-1.556153844069883 -3.631025636163061,3.112307688139766 l4.045999994581696,-0.829948716837271 2.178615381697836,-1.556153844069883 l0.7262051272326125,-1.0374358960465884 -0.20748717920931803,-1.7636410232792012 l2.80107691932579,-9.336923064419299 " fill="none" stroke="black" stroke-width="1" /><path d="M40.76902561990815,25.622461537627952 m0.20748717920931803,-0.5187179480232951 l0.41497435841863495,-0.1037435896046579 -1.86738461288386,3.216051277744425 l1.348666664860566,1.2449230752559064 -1.971128202488519,3.942256404977037 l0.622461537627953,0.5187179480232944 1.244923075255907,0.7262051272326122 l0.518717948023294,0.7262051272326121 0.10374358960465901,0.829948716837271 l-0.41497435841863495,1.3486666648605656 -3.216051277744426,4.045999994581696 " fill="none" stroke="black" stroke-width="1" /><g filter="url(#id1)" transform="skewX(0) skewY(0) rotate(0)" /></svg>