<?xml version="1.0" encoding="utf-8" ?>
<svg baseProfile="full" height="69.6943988974928" version="1.1" width="72.03310876657008" xmlns="http://www.w3.org/2000/svg" xmlns:ev="http://www.w3.org/2001/xml-events" xmlns:xlink="http://www.w3.org/1999/xlink"><defs><filter id="id1"><feGaussianBlur in="SourceGraphic" stdDeviation="0" /></filter></defs><rect fill="white" height="69.6943988974928" width="72.03310876657008" x="0" y="0" /><path d="M26.353989924202633,32.63157957277846 m0.0,0.0 l1.4770799173119609,-2.21561987596794 6.893039614122481,-3.2003398208425815 l-0.1230899931093301,-1.9694398897492804 -3.938879779498561,-7.3853995865597994 " fill="none" stroke="black" stroke-width="1" /><path d="M26.353989924202633,32.63157957277846 m0.0,0.0 l1.4770799173119609,-2.21561987596794 6.893039614122481,-3.2003398208425815 l-0.1230899931093301,-1.9694398897492804 -3.938879779498561,-7.3853995865597994 m0.3692699793279902,-0.49235997243731955 l0.61544996554665,1.7232599035306184 0.24617998621866033,3.2003398208425815 l-0.8616299517653103,33.97283809817509 -0.61544996554665,0.49235997243731955 l-0.61544996554665,-1.2308999310932989 -0.49235997243732066,-20.432938856148784 " fill="none" stroke="black" stroke-width="1" /><path d="M26.353989924202633,32.63157957277846 m0.0,0.0 l1.4770799173119609,-2.21561987596794 6.893039614122481,-3.2003398208425815 l-0.1230899931093301,-1.9694398897492804 -3.938879779498561,-7.3853995865597994 m0.3692699793279902,-0.49235997243731955 l0.61544996554665,1.7232599035306184 0.24617998621866033,3.2003398208425815 l-0.8616299517653103,33.97283809817509 -0.61544996554665,0.49235997243731955 l-0.61544996554665,-1.2308999310932989 -0.49235997243732066,-20.432938856148784 m0.36926997932799077,-0.9847199448746402 l-3.569609800170571,12.801359283370322 -0.7385399586559804,1.2308999310933 l-0.24617998621865977,0.0 -0.123089993109331,-1.7232599035306206 l4.677419738154542,-12.555179297151664 " fill="none" stroke="black" stroke-width="1" /><path d="M26.353989924202633,32.63157957277846 m0.0,0.0 l1.4770799173119609,-2.21561987596794 6.893039614122481,-3.2003398208425815 l-0.1230899931093301,-1.9694398897492804 -3.938879779498561,-7.3853995865597994 m0.3692699793279902,-0.49235997243731955 l0.61544996554665,1.7232599035306184 0.24617998621866033,3.2003398208425815 l-0.8616299517653103,33.97283809817509 -0.61544996554665,0.49235997243731955 l-0.61544996554665,-1.2308999310932989 -0.49235997243732066,-20.432938856148784 m0.36926997932799077,-0.9847199448746402 l-3.569609800170571,12.801359283370322 -0.7385399586559804,1.2308999310933 l-0.24617998621865977,0.0 -0.123089993109331,-1.7232599035306206 l4.677419738154542,-12.555179297151664 m0.6154499655466494,-0.4923599724373201 l0.6154499655466505,0.4923599724373201 0.9847199448746402,1.2308999310933004 l2.21561987596794,10.58573940740238 0.12308999310933003,1.9694398897492804 l-0.12308999310933003,-3.20033982084258 0.24617998621866005,-14.770799173119604 " fill="none" stroke="black" stroke-width="1" /><path d="M26.353989924202633,32.63157957277846 m0.0,0.0 l1.4770799173119609,-2.21561987596794 6.893039614122481,-3.2003398208425815 l-0.1230899931093301,-1.9694398897492804 -3.938879779498561,-7.3853995865597994 m0.3692699793279902,-0.49235997243731955 l0.61544996554665,1.7232599035306184 0.24617998621866033,3.2003398208425815 l-0.8616299517653103,33.97283809817509 -0.61544996554665,0.49235997243731955 l-0.61544996554665,-1.2308999310932989 -0.49235997243732066,-20.432938856148784 m0.36926997932799077,-0.9847199448746402 l-3.569609800170571,12.801359283370322 -0.7385399586559804,1.2308999310933 l-0.24617998621865977,0.0 -0.123089993109331,-1.7232599035306206 l4.677419738154542,-12.555179297151664 m0.6154499655466494,-0.4923599724373201 l0.6154499655466505,0.4923599724373201 0.9847199448746402,1.2308999310933004 l2.21561987596794,10.58573940740238 0.12308999310933003,1.9694398897492804 l-0.12308999310933003,-3.20033982084258 0.24617998621866005,-14.770799173119604 m3.5696098001705705,-2.9541598346239204 l4.308149758826551,-1.4770799173119609 0.0,-0.49235997243731955 l-0.24617998621866088,-0.49235997243731955 -0.49235997243731955,-0.7385399586559815 l-1.6001699104212908,-5.415959696810521 " fill="none" stroke="black" stroke-width="1" /><path d="M26.353989924202633,32.63157957277846 m0.0,0.0 l1.4770799173119609,-2.21561987596794 6.893039614122481,-3.2003398208425815 l-0.1230899931093301,-1.9694398897492804 -3.938879779498561,-7.3853995865597994 m0.3692699793279902,-0.49235997243731955 l0.61544996554665,1.7232599035306184 0.24617998621866033,3.2003398208425815 l-0.8616299517653103,33.97283809817509 -0.61544996554665,0.49235997243731955 l-0.61544996554665,-1.2308999310932989 -0.49235997243732066,-20.432938856148784 m0.36926997932799077,-0.9847199448746402 l-3.569609800170571,12.801359283370322 -0.7385399586559804,1.2308999310933 l-0.24617998621865977,0.0 -0.123089993109331,-1.7232599035306206 l4.677419738154542,-12.555179297151664 m0.6154499655466494,-0.4923599724373201 l0.6154499655466505,0.4923599724373201 0.9847199448746402,1.2308999310933004 l2.21561987596794,10.58573940740238 0.12308999310933003,1.9694398897492804 l-0.12308999310933003,-3.20033982084258 0.24617998621866005,-14.770799173119604 m3.5696098001705705,-2.9541598346239204 l4.308149758826551,-1.4770799173119609 0.0,-0.49235997243731955 l-0.24617998621866088,-0.49235997243731955 -0.49235997243731955,-0.7385399586559815 l-1.6001699104212908,-5.415959696810521 m0.24617998621866033,-0.7385399586559771 l0.24617998621866033,2.4617998621865977 -0.12308999310933044,2.9541598346239217 l-1.60016991042129,11.324279366058363 -0.3692699793279902,1.2308999310933 l-2.09252988285861,0.9847199448746404 " fill="none" stroke="black" stroke-width="1" /><path d="M26.353989924202633,32.63157957277846 m0.0,0.0 l1.4770799173119609,-2.21561987596794 6.893039614122481,-3.2003398208425815 l-0.1230899931093301,-1.9694398897492804 -3.938879779498561,-7.3853995865597994 m0.3692699793279902,-0.49235997243731955 l0.61544996554665,1.7232599035306184 0.24617998621866033,3.2003398208425815 l-0.8616299517653103,33.97283809817509 -0.61544996554665,0.49235997243731955 l-0.61544996554665,-1.2308999310932989 -0.49235997243732066,-20.432938856148784 m0.36926997932799077,-0.9847199448746402 l-3.569609800170571,12.801359283370322 -0.7385399586559804,1.2308999310933 l-0.24617998621865977,0.0 -0.123089993109331,-1.7232599035306206 l4.677419738154542,-12.555179297151664 m0.6154499655466494,-0.4923599724373201 l0.6154499655466505,0.4923599724373201 0.9847199448746402,1.2308999310933004 l2.21561987596794,10.58573940740238 0.12308999310933003,1.9694398897492804 l-0.12308999310933003,-3.20033982084258 0.24617998621866005,-14.770799173119604 m3.5696098001705705,-2.9541598346239204 l4.308149758826551,-1.4770799173119609 0.0,-0.49235997243731955 l-0.24617998621866088,-0.49235997243731955 -0.49235997243731955,-0.7385399586559815 l-1.6001699104212908,-5.415959696810521 m0.24617998621866033,-0.7385399586559771 l0.24617998621866033,2.4617998621865977 -0.12308999310933044,2.9541598346239217 l-1.60016991042129,11.324279366058363 -0.3692699793279902,1.2308999310933 l-2.09252988285861,0.9847199448746404 m-0.24617998621866005,-0.4923599724373201 l4.800509731263871,-1.9694398897492806 0.8616299517653103,0.0 l-0.12308999310932989,0.0 -6.154499655466502,8.862479503871763 " fill="none" stroke="black" stroke-width="1" /><path d="M26.353989924202633,32.63157957277846 m0.0,0.0 l1.4770799173119609,-2.21561987596794 6.893039614122481,-3.2003398208425815 l-0.1230899931093301,-1.9694398897492804 -3.938879779498561,-7.3853995865597994 m0.3692699793279902,-0.49235997243731955 l0.61544996554665,1.7232599035306184 0.24617998621866033,3.2003398208425815 l-0.8616299517653103,33.97283809817509 -0.61544996554665,0.49235997243731955 l-0.61544996554665,-1.2308999310932989 -0.49235997243732066,-20.432938856148784 m0.36926997932799077,-0.9847199448746402 l-3.569609800170571,12.801359283370322 -0.7385399586559804,1.2308999310933 l-0.24617998621865977,0.0 -0.123089993109331,-1.7232599035306206 l4.677419738154542,-12.555179297151664 m0.6154499655466494,-0.4923599724373201 l0.6154499655466505,0.4923599724373201 0.9847199448746402,1.2308999310933004 l2.21561987596794,10.58573940740238 0.12308999310933003,1.9694398897492804 l-0.12308999310933003,-3.20033982084258 0.24617998621866005,-14.770799173119604 m3.5696098001705705,-2.9541598346239204 l4.308149758826551,-1.4770799173119609 0.0,-0.49235997243731955 l-0.24617998621866088,-0.49235997243731955 -0.49235997243731955,-0.7385399586559815 l-1.6001699104212908,-5.415959696810521 m0.24617998621866033,-0.7385399586559771 l0.24617998621866033,2.4617998621865977 -0.12308999310933044,2.9541598346239217 l-1.60016991042129,11.324279366058363 -0.3692699793279902,1.2308999310933 l-2.09252988285861,0.9847199448746404 m-0.24617998621866005,-0.4923599724373201 l4.800509731263871,-1.9694398897492806 0.8616299517653103,0.0 l-0.12308999310932989,0.0 -6.154499655466502,8.862479503871763 m0.0,0.4923599724373201 l6.400679641685161,-3.2003398208425806 0.0,-0.49235997243731994 l-3.0772498277332505,-3.692699793279901 " fill="none" stroke="black" stroke-width="1" /><path d="M26.353989924202633,32.63157957277846 m0.0,0.0 l1.4770799173119609,-2.21561987596794 6.893039614122481,-3.2003398208425815 l-0.1230899931093301,-1.9694398897492804 -3.938879779498561,-7.3853995865597994 m0.3692699793279902,-0.49235997243731955 l0.61544996554665,1.7232599035306184 0.24617998621866033,3.2003398208425815 l-0.8616299517653103,33.97283809817509 -0.61544996554665,0.49235997243731955 l-0.61544996554665,-1.2308999310932989 -0.49235997243732066,-20.432938856148784 m0.36926997932799077,-0.9847199448746402 l-3.569609800170571,12.801359283370322 -0.7385399586559804,1.2308999310933 l-0.24617998621865977,0.0 -0.123089993109331,-1.7232599035306206 l4.677419738154542,-12.555179297151664 m0.6154499655466494,-0.4923599724373201 l0.6154499655466505,0.4923599724373201 0.9847199448746402,1.2308999310933004 l2.21561987596794,10.58573940740238 0.12308999310933003,1.9694398897492804 l-0.12308999310933003,-3.20033982084258 0.24617998621866005,-14.770799173119604 m3.5696098001705705,-2.9541598346239204 l4.308149758826551,-1.4770799173119609 0.0,-0.49235997243731955 l-0.24617998621866088,-0.49235997243731955 -0.49235997243731955,-0.7385399586559815 l-1.6001699104212908,-5.415959696810521 m0.24617998621866033,-0.7385399586559771 l0.24617998621866033,2.4617998621865977 -0.12308999310933044,2.9541598346239217 l-1.60016991042129,11.324279366058363 -0.3692699793279902,1.2308999310933 l-2.09252988285861,0.9847199448746404 m-0.24617998621866005,-0.4923599724373201 l4.800509731263871,-1.9694398897492806 0.8616299517653103,0.0 l-0.12308999310932989,0.0 -6.154499655466502,8.862479503871763 m0.0,0.4923599724373201 l6.400679641685161,-3.2003398208425806 0.0,-0.49235997243731994 l-3.0772498277332505,-3.692699793279901 m0.24617998621865977,0.0 l0.3692699793279902,1.7232599035306202 0.0,6.400679641685161 l0.24617998621866033,2.9541598346239204 -0.49235997243732066,4.431239751935881 l-0.4923599724373201,1.7232599035306206 -0.61544996554665,0.0 l-4.923599724373201,0.0 " fill="none" stroke="black" stroke-width="1" /><path d="M26.353989924202633,32.63157957277846 m0.0,0.0 l1.4770799173119609,-2.21561987596794 6.893039614122481,-3.2003398208425815 l-0.1230899931093301,-1.9694398897492804 -3.938879779498561,-7.3853995865597994 m0.3692699793279902,-0.49235997243731955 l0.61544996554665,1.7232599035306184 0.24617998621866033,3.2003398208425815 l-0.8616299517653103,33.97283809817509 -0.61544996554665,0.49235997243731955 l-0.61544996554665,-1.2308999310932989 -0.49235997243732066,-20.432938856148784 m0.36926997932799077,-0.9847199448746402 l-3.569609800170571,12.801359283370322 -0.7385399586559804,1.2308999310933 l-0.24617998621865977,0.0 -0.123089993109331,-1.7232599035306206 l4.677419738154542,-12.555179297151664 m0.6154499655466494,-0.4923599724373201 l0.6154499655466505,0.4923599724373201 0.9847199448746402,1.2308999310933004 l2.21561987596794,10.58573940740238 0.12308999310933003,1.9694398897492804 l-0.12308999310933003,-3.20033982084258 0.24617998621866005,-14.770799173119604 m3.5696098001705705,-2.9541598346239204 l4.308149758826551,-1.4770799173119609 0.0,-0.49235997243731955 l-0.24617998621866088,-0.49235997243731955 -0.49235997243731955,-0.7385399586559815 l-1.6001699104212908,-5.415959696810521 m0.24617998621866033,-0.7385399586559771 l0.24617998621866033,2.4617998621865977 -0.12308999310933044,2.9541598346239217 l-1.60016991042129,11.324279366058363 -0.3692699793279902,1.2308999310933 l-2.09252988285861,0.9847199448746404 m-0.24617998621866005,-0.4923599724373201 l4.800509731263871,-1.9694398897492806 0.8616299517653103,0.0 l-0.12308999310932989,0.0 -6.154499655466502,8.862479503871763 m0.0,0.4923599724373201 l6.400679641685161,-3.2003398208425806 0.0,-0.49235997243731994 l-3.0772498277332505,-3.692699793279901 m0.24617998621865977,0.0 l0.3692699793279902,1.7232599035306202 0.0,6.400679641685161 l0.24617998621866033,2.9541598346239204 -0.49235997243732066,4.431239751935881 l-0.4923599724373201,1.7232599035306206 -0.61544996554665,0.0 l-4.923599724373201,0.0 m0.0,-0.49235997243732177 l14.032259214463622,-0.7385399586559793 " fill="none" stroke="black" stroke-width="1" /><g filter="url(#id1)" transform="skewX(0) skewY(0) rotate(0)" /></svg>