<?xml version="1.0" encoding="utf-8" ?>
<svg baseProfile="full" height="65.16998514533043" version="1.1" width="71.20225880295038" xmlns="http://www.w3.org/2000/svg" xmlns:ev="http://www.w3.org/2001/xml-events" xmlns:xlink="http://www.w3.org/1999/xlink"><defs><filter id="id2"><feGaussianBlur in="SourceGraphic" stdDeviation="0" /></filter></defs><rect fill="white" height="65.16998514533043" width="71.20225880295038" x="0" y="0" /><path d="M36.066041607409716,35.33571183681488 m3.458145558834076,-1.995803713798523 l0.17683712765574455,-4.643571078777313 0.7141424715518951,-1.5604496002197266 l-0.49005404114723206,17.86837100982666 -3.2512781023979187,-6.808924078941345 l-8.209419250488281,-4.98125821352005 -3.4644153714179993,-1.5424808859825134 l0.8158989995718002,-0.5420266464352608 6.2344372272491455,0.12904785573482513 l2.002091109752655,-1.9063782691955566 0.44854946434497833,-0.4959959164261818 l0.5398920550942421,6.076435446739197 3.436780571937561,-15.6546950340271 l0.1426772028207779,-4.613694548606873 2.1958626806735992,5.1531147956848145 l-0.608295202255249,-1.9599458575248718 0.5019985511898994,-0.3332558646798134 l0.5745850875973701,-0.3116495907306671 " fill="none" stroke="black" stroke-width="1" /><path d="M36.066041607409716,35.33571183681488 m3.458145558834076,-1.995803713798523 l0.17683712765574455,-4.643571078777313 0.7141424715518951,-1.5604496002197266 l-0.49005404114723206,17.86837100982666 -3.2512781023979187,-6.808924078941345 l-8.209419250488281,-4.98125821352005 -3.4644153714179993,-1.5424808859825134 l0.8158989995718002,-0.5420266464352608 6.2344372272491455,0.12904785573482513 l2.002091109752655,-1.9063782691955566 0.44854946434497833,-0.4959959164261818 l0.5398920550942421,6.076435446739197 3.436780571937561,-15.6546950340271 l0.1426772028207779,-4.613694548606873 2.1958626806735992,5.1531147956848145 l-0.608295202255249,-1.9599458575248718 0.5019985511898994,-0.3332558646798134 l0.5745850875973701,-0.3116495907306671 m4.917781054973602,0.742385983467102 l-4.788037836551666,8.081448674201965 " fill="none" stroke="black" stroke-width="1" /><g filter="url(#id2)" transform="skewX(0) skewY(0) rotate(0)" /></svg>