<?xml version="1.0" encoding="utf-8" ?>
<svg baseProfile="full" height="89.14457446703392" version="1.1" width="74.99887154436746" xmlns="http://www.w3.org/2000/svg" xmlns:ev="http://www.w3.org/2001/xml-events" xmlns:xlink="http://www.w3.org/1999/xlink"><defs><filter id="id1"><feGaussianBlur in="SourceGraphic" stdDeviation="0" /></filter></defs><rect fill="white" height="89.14457446703392" width="74.99887154436746" x="0" y="0" /><path d="M35.609277191999844,27.804751441563177 m0.0,0.0 l1.3414028633563027,9.267874328643545 1.0975114336551564,0.4877828594022926 l0.0,-4.877828594022922 3.6583714455171883,-6.3411771722297905 " fill="none" stroke="black" stroke-width="1" /><path d="M35.609277191999844,27.804751441563177 m0.0,0.0 l1.3414028633563027,9.267874328643545 1.0975114336551564,0.4877828594022926 l0.0,-4.877828594022922 3.6583714455171883,-6.3411771722297905 m0.4877828594022915,1.219457148505727 l0.0,1.2194571485057315 -0.4877828594022915,1.951131437609166 l-2.682805726712605,6.8289600316320875 -2.07307715245974,3.4144800158160393 l-3.048642871264323,2.682805726712607 7.560634320735522,-5.121720023724065 l-3.2925343009654693,4.633937164321773 -3.0486428712643234,2.682805726712605 l-7.682580035586095,12.438462914758441 " fill="none" stroke="black" stroke-width="1" /><path d="M35.609277191999844,27.804751441563177 m0.0,0.0 l1.3414028633563027,9.267874328643545 1.0975114336551564,0.4877828594022926 l0.0,-4.877828594022922 3.6583714455171883,-6.3411771722297905 m0.4877828594022915,1.219457148505727 l0.0,1.2194571485057315 -0.4877828594022915,1.951131437609166 l-2.682805726712605,6.8289600316320875 -2.07307715245974,3.4144800158160393 l-3.048642871264323,2.682805726712607 7.560634320735522,-5.121720023724065 l-3.2925343009654693,4.633937164321773 -3.0486428712643234,2.682805726712605 l-7.682580035586095,12.438462914758441 m-0.6097285742528658,-0.2438914297011463 l12.194571485057294,-5.121720023724063 8.170362894988386,-6.828960031632084 l-1.3414028633563024,0.975565718804583 -1.7072400079080212,0.0 l-1.9511314376091675,-2.926697156413751 -2.1950228673103127,-7.072851461333229 l-1.3414028633563024,-14.877377211769897 " fill="none" stroke="black" stroke-width="1" /><path d="M35.609277191999844,27.804751441563177 m0.0,0.0 l1.3414028633563027,9.267874328643545 1.0975114336551564,0.4877828594022926 l0.0,-4.877828594022922 3.6583714455171883,-6.3411771722297905 m0.4877828594022915,1.219457148505727 l0.0,1.2194571485057315 -0.4877828594022915,1.951131437609166 l-2.682805726712605,6.8289600316320875 -2.07307715245974,3.4144800158160393 l-3.048642871264323,2.682805726712607 7.560634320735522,-5.121720023724065 l-3.2925343009654693,4.633937164321773 -3.0486428712643234,2.682805726712605 l-7.682580035586095,12.438462914758441 m-0.6097285742528658,-0.2438914297011463 l12.194571485057294,-5.121720023724063 8.170362894988386,-6.828960031632084 l-1.3414028633563024,0.975565718804583 -1.7072400079080212,0.0 l-1.9511314376091675,-2.926697156413751 -2.1950228673103127,-7.072851461333229 l-1.3414028633563024,-14.877377211769897 m0.6097285742528648,1.4633485782068734 l1.0975114336551566,6.585068601930937 -0.6097285742528646,14.145702922666462 l-1.3414028633563024,9.023982898942398 -4.14615430491948,14.14570292266646 l-2.1950228673103123,4.633937164321771 -1.9511314376091682,1.9511314376091682 l-1.7072400079080208,0.7316742891034367 -1.4633485782068756,-0.975565718804583 l-1.2194571485057293,-5.121720023724064 -0.7316742891034367,-7.560634320735522 l13.535974348413594,-7.07285146133323 " fill="none" stroke="black" stroke-width="1" /><path d="M35.609277191999844,27.804751441563177 m0.0,0.0 l1.3414028633563027,9.267874328643545 1.0975114336551564,0.4877828594022926 l0.0,-4.877828594022922 3.6583714455171883,-6.3411771722297905 m0.4877828594022915,1.219457148505727 l0.0,1.2194571485057315 -0.4877828594022915,1.951131437609166 l-2.682805726712605,6.8289600316320875 -2.07307715245974,3.4144800158160393 l-3.048642871264323,2.682805726712607 7.560634320735522,-5.121720023724065 l-3.2925343009654693,4.633937164321773 -3.0486428712643234,2.682805726712605 l-7.682580035586095,12.438462914758441 m-0.6097285742528658,-0.2438914297011463 l12.194571485057294,-5.121720023724063 8.170362894988386,-6.828960031632084 l-1.3414028633563024,0.975565718804583 -1.7072400079080212,0.0 l-1.9511314376091675,-2.926697156413751 -2.1950228673103127,-7.072851461333229 l-1.3414028633563024,-14.877377211769897 m0.6097285742528648,1.4633485782068734 l1.0975114336551566,6.585068601930937 -0.6097285742528646,14.145702922666462 l-1.3414028633563024,9.023982898942398 -4.14615430491948,14.14570292266646 l-2.1950228673103123,4.633937164321771 -1.9511314376091682,1.9511314376091682 l-1.7072400079080208,0.7316742891034367 -1.4633485782068756,-0.975565718804583 l-1.2194571485057293,-5.121720023724064 -0.7316742891034367,-7.560634320735522 l13.535974348413594,-7.07285146133323 m1.8291857227585941,0.975565718804583 l7.316742891034377,9.755657188045834 2.3169685821608863,0.24389142970114602 l-2.804751441563178,-6.341177172229792 -6.2192314573792205,-8.536200039540104 l-4.390045734620626,10.243440047448127 " fill="none" stroke="black" stroke-width="1" /><path d="M35.609277191999844,27.804751441563177 m0.0,0.0 l1.3414028633563027,9.267874328643545 1.0975114336551564,0.4877828594022926 l0.0,-4.877828594022922 3.6583714455171883,-6.3411771722297905 m0.4877828594022915,1.219457148505727 l0.0,1.2194571485057315 -0.4877828594022915,1.951131437609166 l-2.682805726712605,6.8289600316320875 -2.07307715245974,3.4144800158160393 l-3.048642871264323,2.682805726712607 7.560634320735522,-5.121720023724065 l-3.2925343009654693,4.633937164321773 -3.0486428712643234,2.682805726712605 l-7.682580035586095,12.438462914758441 m-0.6097285742528658,-0.2438914297011463 l12.194571485057294,-5.121720023724063 8.170362894988386,-6.828960031632084 l-1.3414028633563024,0.975565718804583 -1.7072400079080212,0.0 l-1.9511314376091675,-2.926697156413751 -2.1950228673103127,-7.072851461333229 l-1.3414028633563024,-14.877377211769897 m0.6097285742528648,1.4633485782068734 l1.0975114336551566,6.585068601930937 -0.6097285742528646,14.145702922666462 l-1.3414028633563024,9.023982898942398 -4.14615430491948,14.14570292266646 l-2.1950228673103123,4.633937164321771 -1.9511314376091682,1.9511314376091682 l-1.7072400079080208,0.7316742891034367 -1.4633485782068756,-0.975565718804583 l-1.2194571485057293,-5.121720023724064 -0.7316742891034367,-7.560634320735522 l13.535974348413594,-7.07285146133323 m1.8291857227585941,0.975565718804583 l7.316742891034377,9.755657188045834 2.3169685821608863,0.24389142970114602 l-2.804751441563178,-6.341177172229792 -6.2192314573792205,-8.536200039540104 l-4.390045734620626,10.243440047448127 m-0.4877828594022915,1.4633485782068751 l0.12194571485057315,0.9755657188045835 3.536425730666615,1.951131437609167 l-1.0975114336551566,-0.48778285940229177 -1.2194571485057293,-2.4389142970114586 l-0.48778285940229177,6.828960031632084 " fill="none" stroke="black" stroke-width="1" /><path d="M35.609277191999844,27.804751441563177 m0.0,0.0 l1.3414028633563027,9.267874328643545 1.0975114336551564,0.4877828594022926 l0.0,-4.877828594022922 3.6583714455171883,-6.3411771722297905 m0.4877828594022915,1.219457148505727 l0.0,1.2194571485057315 -0.4877828594022915,1.951131437609166 l-2.682805726712605,6.8289600316320875 -2.07307715245974,3.4144800158160393 l-3.048642871264323,2.682805726712607 7.560634320735522,-5.121720023724065 l-3.2925343009654693,4.633937164321773 -3.0486428712643234,2.682805726712605 l-7.682580035586095,12.438462914758441 m-0.6097285742528658,-0.2438914297011463 l12.194571485057294,-5.121720023724063 8.170362894988386,-6.828960031632084 l-1.3414028633563024,0.975565718804583 -1.7072400079080212,0.0 l-1.9511314376091675,-2.926697156413751 -2.1950228673103127,-7.072851461333229 l-1.3414028633563024,-14.877377211769897 m0.6097285742528648,1.4633485782068734 l1.0975114336551566,6.585068601930937 -0.6097285742528646,14.145702922666462 l-1.3414028633563024,9.023982898942398 -4.14615430491948,14.14570292266646 l-2.1950228673103123,4.633937164321771 -1.9511314376091682,1.9511314376091682 l-1.7072400079080208,0.7316742891034367 -1.4633485782068756,-0.975565718804583 l-1.2194571485057293,-5.121720023724064 -0.7316742891034367,-7.560634320735522 l13.535974348413594,-7.07285146133323 m1.8291857227585941,0.975565718804583 l7.316742891034377,9.755657188045834 2.3169685821608863,0.24389142970114602 l-2.804751441563178,-6.341177172229792 -6.2192314573792205,-8.536200039540104 l-4.390045734620626,10.243440047448127 m-0.4877828594022915,1.4633485782068751 l0.12194571485057315,0.9755657188045835 3.536425730666615,1.951131437609167 l-1.0975114336551566,-0.48778285940229177 -1.2194571485057293,-2.4389142970114586 l-0.48778285940229177,6.828960031632084 m3.2925343009654693,0.4877828594022926 l-2.07307715245974,1.2194571485057293 -2.438914297011459,3.6583714455171887 l-0.3658371445517189,0.7316742891034367 0.3658371445517189,-0.7316742891034367 l5.36561145342521,-4.14615430491948 -1.7072400079080212,1.4633485782068745 l-2.4389142970114586,0.2438914297011463 -5.609502883126354,10.487331477149272 " fill="none" stroke="black" stroke-width="1" /><path d="M35.609277191999844,27.804751441563177 m0.0,0.0 l1.3414028633563027,9.267874328643545 1.0975114336551564,0.4877828594022926 l0.0,-4.877828594022922 3.6583714455171883,-6.3411771722297905 m0.4877828594022915,1.219457148505727 l0.0,1.2194571485057315 -0.4877828594022915,1.951131437609166 l-2.682805726712605,6.8289600316320875 -2.07307715245974,3.4144800158160393 l-3.048642871264323,2.682805726712607 7.560634320735522,-5.121720023724065 l-3.2925343009654693,4.633937164321773 -3.0486428712643234,2.682805726712605 l-7.682580035586095,12.438462914758441 m-0.6097285742528658,-0.2438914297011463 l12.194571485057294,-5.121720023724063 8.170362894988386,-6.828960031632084 l-1.3414028633563024,0.975565718804583 -1.7072400079080212,0.0 l-1.9511314376091675,-2.926697156413751 -2.1950228673103127,-7.072851461333229 l-1.3414028633563024,-14.877377211769897 m0.6097285742528648,1.4633485782068734 l1.0975114336551566,6.585068601930937 -0.6097285742528646,14.145702922666462 l-1.3414028633563024,9.023982898942398 -4.14615430491948,14.14570292266646 l-2.1950228673103123,4.633937164321771 -1.9511314376091682,1.9511314376091682 l-1.7072400079080208,0.7316742891034367 -1.4633485782068756,-0.975565718804583 l-1.2194571485057293,-5.121720023724064 -0.7316742891034367,-7.560634320735522 l13.535974348413594,-7.07285146133323 m1.8291857227585941,0.975565718804583 l7.316742891034377,9.755657188045834 2.3169685821608863,0.24389142970114602 l-2.804751441563178,-6.341177172229792 -6.2192314573792205,-8.536200039540104 l-4.390045734620626,10.243440047448127 m-0.4877828594022915,1.4633485782068751 l0.12194571485057315,0.9755657188045835 3.536425730666615,1.951131437609167 l-1.0975114336551566,-0.48778285940229177 -1.2194571485057293,-2.4389142970114586 l-0.48778285940229177,6.828960031632084 m3.2925343009654693,0.4877828594022926 l-2.07307715245974,1.2194571485057293 -2.438914297011459,3.6583714455171887 l-0.3658371445517189,0.7316742891034367 0.3658371445517189,-0.7316742891034367 l5.36561145342521,-4.14615430491948 -1.7072400079080212,1.4633485782068745 l-2.4389142970114586,0.2438914297011463 -5.609502883126354,10.487331477149272 m-0.4877828594022926,0.0 l5.36561145342521,0.4877828594022926 8.414254324689534,-4.877828594022919 l2.5608600118620317,-3.1705885861148975 -1.4633485782068756,1.2194571485057293 l-2.9266971564137503,0.7316742891034389 -3.6583714455171883,-0.7316742891034389 l-2.804751441563178,8.536200039540107 " fill="none" stroke="black" stroke-width="1" /><path d="M35.609277191999844,27.804751441563177 m0.0,0.0 l1.3414028633563027,9.267874328643545 1.0975114336551564,0.4877828594022926 l0.0,-4.877828594022922 3.6583714455171883,-6.3411771722297905 m0.4877828594022915,1.219457148505727 l0.0,1.2194571485057315 -0.4877828594022915,1.951131437609166 l-2.682805726712605,6.8289600316320875 -2.07307715245974,3.4144800158160393 l-3.048642871264323,2.682805726712607 7.560634320735522,-5.121720023724065 l-3.2925343009654693,4.633937164321773 -3.0486428712643234,2.682805726712605 l-7.682580035586095,12.438462914758441 m-0.6097285742528658,-0.2438914297011463 l12.194571485057294,-5.121720023724063 8.170362894988386,-6.828960031632084 l-1.3414028633563024,0.975565718804583 -1.7072400079080212,0.0 l-1.9511314376091675,-2.926697156413751 -2.1950228673103127,-7.072851461333229 l-1.3414028633563024,-14.877377211769897 m0.6097285742528648,1.4633485782068734 l1.0975114336551566,6.585068601930937 -0.6097285742528646,14.145702922666462 l-1.3414028633563024,9.023982898942398 -4.14615430491948,14.14570292266646 l-2.1950228673103123,4.633937164321771 -1.9511314376091682,1.9511314376091682 l-1.7072400079080208,0.7316742891034367 -1.4633485782068756,-0.975565718804583 l-1.2194571485057293,-5.121720023724064 -0.7316742891034367,-7.560634320735522 l13.535974348413594,-7.07285146133323 m1.8291857227585941,0.975565718804583 l7.316742891034377,9.755657188045834 2.3169685821608863,0.24389142970114602 l-2.804751441563178,-6.341177172229792 -6.2192314573792205,-8.536200039540104 l-4.390045734620626,10.243440047448127 m-0.4877828594022915,1.4633485782068751 l0.12194571485057315,0.9755657188045835 3.536425730666615,1.951131437609167 l-1.0975114336551566,-0.48778285940229177 -1.2194571485057293,-2.4389142970114586 l-0.48778285940229177,6.828960031632084 m3.2925343009654693,0.4877828594022926 l-2.07307715245974,1.2194571485057293 -2.438914297011459,3.6583714455171887 l-0.3658371445517189,0.7316742891034367 0.3658371445517189,-0.7316742891034367 l5.36561145342521,-4.14615430491948 -1.7072400079080212,1.4633485782068745 l-2.4389142970114586,0.2438914297011463 -5.609502883126354,10.487331477149272 m-0.4877828594022926,0.0 l5.36561145342521,0.4877828594022926 8.414254324689534,-4.877828594022919 l2.5608600118620317,-3.1705885861148975 -1.4633485782068756,1.2194571485057293 l-2.9266971564137503,0.7316742891034389 -3.6583714455171883,-0.7316742891034389 l-2.804751441563178,8.536200039540107 m0.8536200039540106,1.2194571485057315 l0.3658371445517189,2.9266971564137467 0.3658371445517189,9.511765758344692 l0.12194571485057287,-4.390045734620629 0.6097285742528646,-1.4633485782068734 l4.024208590068907,-2.4389142970114586 2.0730771524597396,1.219457148505727 l0.12194571485057315,1.2194571485057315 -1.951131437609167,4.877828594022917 l-2.4389142970114586,3.4144800158160438 4.14615430491948,-6.097285742528649 l0.8536200039540098,-3.4144800158160438 " fill="none" stroke="black" stroke-width="1" /><g filter="url(#id1)" transform="skewX(0) skewY(0) rotate(0)" /></svg>