<?xml version="1.0" encoding="utf-8" ?>
<svg baseProfile="full" height="69.80599304138279" version="1.1" width="70.26025893682736" xmlns="http://www.w3.org/2000/svg" xmlns:ev="http://www.w3.org/2001/xml-events" xmlns:xlink="http://www.w3.org/1999/xlink"><defs><filter id="id1"><feGaussianBlur in="SourceGraphic" stdDeviation="0" /></filter></defs><rect fill="white" height="69.80599304138279" width="70.26025893682736" x="0" y="0" /><path d="M27.089623119044973,31.087162998957098 m0.0,0.0 l-0.9085317908891188,17.443810385071085 -0.45426589544456,2.1804762981338865 l-0.7268254327112955,1.2719445072447666 0.8176786118002077,-27.074247368495747 " fill="none" stroke="black" stroke-width="1" /><path d="M27.089623119044973,31.087162998957098 m0.0,0.0 l-0.9085317908891188,17.443810385071085 -0.45426589544456,2.1804762981338865 l-0.7268254327112955,1.2719445072447666 0.8176786118002077,-27.074247368495747 m0.7268254327112955,-1.99876993995606 l1.1810913281558544,-0.36341271635564887 1.2719445072447666,2.3621826563117088 l0.5451190745334716,3.0890080890230065 0.6359722536223833,27.982779159384865 l-0.27255953726673554,1.8170635817782377 -0.18170635817782388,0.7268254327112955 l-0.4542658954445594,-0.90853179088912 -2.4530358354006214,-18.352342175960203 " fill="none" stroke="black" stroke-width="1" /><path d="M27.089623119044973,31.087162998957098 m0.0,0.0 l-0.9085317908891188,17.443810385071085 -0.45426589544456,2.1804762981338865 l-0.7268254327112955,1.2719445072447666 0.8176786118002077,-27.074247368495747 m0.7268254327112955,-1.99876993995606 l1.1810913281558544,-0.36341271635564887 1.2719445072447666,2.3621826563117088 l0.5451190745334716,3.0890080890230065 0.6359722536223833,27.982779159384865 l-0.27255953726673554,1.8170635817782377 -0.18170635817782388,0.7268254327112955 l-0.4542658954445594,-0.90853179088912 -2.4530358354006214,-18.352342175960203 m0.18170635817782332,-0.9085317908891191 l0.27255953726673554,-0.726825432711295 2.1804762981338857,-0.9085317908891194 l-1.9079167608671492,5.4511907453347135 " fill="none" stroke="black" stroke-width="1" /><path d="M27.089623119044973,31.087162998957098 m0.0,0.0 l-0.9085317908891188,17.443810385071085 -0.45426589544456,2.1804762981338865 l-0.7268254327112955,1.2719445072447666 0.8176786118002077,-27.074247368495747 m0.7268254327112955,-1.99876993995606 l1.1810913281558544,-0.36341271635564887 1.2719445072447666,2.3621826563117088 l0.5451190745334716,3.0890080890230065 0.6359722536223833,27.982779159384865 l-0.27255953726673554,1.8170635817782377 -0.18170635817782388,0.7268254327112955 l-0.4542658954445594,-0.90853179088912 -2.4530358354006214,-18.352342175960203 m0.18170635817782332,-0.9085317908891191 l0.27255953726673554,-0.726825432711295 2.1804762981338857,-0.9085317908891194 l-1.9079167608671492,5.4511907453347135 m2.6347421935784445,-1.0902381490669426 l0.9993849699780311,-1.4536508654225904 0.8176786118002072,-1.8170635817782377 l3.2707144472008287,-18.897461250493677 " fill="none" stroke="black" stroke-width="1" /><path d="M27.089623119044973,31.087162998957098 m0.0,0.0 l-0.9085317908891188,17.443810385071085 -0.45426589544456,2.1804762981338865 l-0.7268254327112955,1.2719445072447666 0.8176786118002077,-27.074247368495747 m0.7268254327112955,-1.99876993995606 l1.1810913281558544,-0.36341271635564887 1.2719445072447666,2.3621826563117088 l0.5451190745334716,3.0890080890230065 0.6359722536223833,27.982779159384865 l-0.27255953726673554,1.8170635817782377 -0.18170635817782388,0.7268254327112955 l-0.4542658954445594,-0.90853179088912 -2.4530358354006214,-18.352342175960203 m0.18170635817782332,-0.9085317908891191 l0.27255953726673554,-0.726825432711295 2.1804762981338857,-0.9085317908891194 l-1.9079167608671492,5.4511907453347135 m2.6347421935784445,-1.0902381490669426 l0.9993849699780311,-1.4536508654225904 0.8176786118002072,-1.8170635817782377 l3.2707144472008287,-18.897461250493677 m0.36341271635564776,2.1804762981338843 l-0.18170635817782388,1.2719445072447666 -3.6341271635564762,4.542658954445595 " fill="none" stroke="black" stroke-width="1" /><path d="M27.089623119044973,31.087162998957098 m0.0,0.0 l-0.9085317908891188,17.443810385071085 -0.45426589544456,2.1804762981338865 l-0.7268254327112955,1.2719445072447666 0.8176786118002077,-27.074247368495747 m0.7268254327112955,-1.99876993995606 l1.1810913281558544,-0.36341271635564887 1.2719445072447666,2.3621826563117088 l0.5451190745334716,3.0890080890230065 0.6359722536223833,27.982779159384865 l-0.27255953726673554,1.8170635817782377 -0.18170635817782388,0.7268254327112955 l-0.4542658954445594,-0.90853179088912 -2.4530358354006214,-18.352342175960203 m0.18170635817782332,-0.9085317908891191 l0.27255953726673554,-0.726825432711295 2.1804762981338857,-0.9085317908891194 l-1.9079167608671492,5.4511907453347135 m2.6347421935784445,-1.0902381490669426 l0.9993849699780311,-1.4536508654225904 0.8176786118002072,-1.8170635817782377 l3.2707144472008287,-18.897461250493677 m0.36341271635564776,2.1804762981338843 l-0.18170635817782388,1.2719445072447666 -3.6341271635564762,4.542658954445595 m0.0,2.362182656311711 l0.4542658954445594,3.2707144472008274 1.5445040445115024,-2.180476298133885 l2.7255953726673567,-1.8170635817782377 3.906686700823212,0.7268254327112955 l0.0,1.8170635817782377 -1.8170635817782381,2.7255953726673576 l-4.542658954445595,0.36341271635564665 " fill="none" stroke="black" stroke-width="1" /><path d="M27.089623119044973,31.087162998957098 m0.0,0.0 l-0.9085317908891188,17.443810385071085 -0.45426589544456,2.1804762981338865 l-0.7268254327112955,1.2719445072447666 0.8176786118002077,-27.074247368495747 m0.7268254327112955,-1.99876993995606 l1.1810913281558544,-0.36341271635564887 1.2719445072447666,2.3621826563117088 l0.5451190745334716,3.0890080890230065 0.6359722536223833,27.982779159384865 l-0.27255953726673554,1.8170635817782377 -0.18170635817782388,0.7268254327112955 l-0.4542658954445594,-0.90853179088912 -2.4530358354006214,-18.352342175960203 m0.18170635817782332,-0.9085317908891191 l0.27255953726673554,-0.726825432711295 2.1804762981338857,-0.9085317908891194 l-1.9079167608671492,5.4511907453347135 m2.6347421935784445,-1.0902381490669426 l0.9993849699780311,-1.4536508654225904 0.8176786118002072,-1.8170635817782377 l3.2707144472008287,-18.897461250493677 m0.36341271635564776,2.1804762981338843 l-0.18170635817782388,1.2719445072447666 -3.6341271635564762,4.542658954445595 m0.0,2.362182656311711 l0.4542658954445594,3.2707144472008274 1.5445040445115024,-2.180476298133885 l2.7255953726673567,-1.8170635817782377 3.906686700823212,0.7268254327112955 l0.0,1.8170635817782377 -1.8170635817782381,2.7255953726673576 l-4.542658954445595,0.36341271635564665 m-0.1817063581778238,3.6341271635564767 l-0.8176786118002072,4.724365312623418 -0.9993849699780308,3.452420805378652 l-0.36341271635564776,0.5451190745334711 -0.18170635817782388,0.0 l2.9073017308451807,-7.813373401646424 " fill="none" stroke="black" stroke-width="1" /><path d="M27.089623119044973,31.087162998957098 m0.0,0.0 l-0.9085317908891188,17.443810385071085 -0.45426589544456,2.1804762981338865 l-0.7268254327112955,1.2719445072447666 0.8176786118002077,-27.074247368495747 m0.7268254327112955,-1.99876993995606 l1.1810913281558544,-0.36341271635564887 1.2719445072447666,2.3621826563117088 l0.5451190745334716,3.0890080890230065 0.6359722536223833,27.982779159384865 l-0.27255953726673554,1.8170635817782377 -0.18170635817782388,0.7268254327112955 l-0.4542658954445594,-0.90853179088912 -2.4530358354006214,-18.352342175960203 m0.18170635817782332,-0.9085317908891191 l0.27255953726673554,-0.726825432711295 2.1804762981338857,-0.9085317908891194 l-1.9079167608671492,5.4511907453347135 m2.6347421935784445,-1.0902381490669426 l0.9993849699780311,-1.4536508654225904 0.8176786118002072,-1.8170635817782377 l3.2707144472008287,-18.897461250493677 m0.36341271635564776,2.1804762981338843 l-0.18170635817782388,1.2719445072447666 -3.6341271635564762,4.542658954445595 m0.0,2.362182656311711 l0.4542658954445594,3.2707144472008274 1.5445040445115024,-2.180476298133885 l2.7255953726673567,-1.8170635817782377 3.906686700823212,0.7268254327112955 l0.0,1.8170635817782377 -1.8170635817782381,2.7255953726673576 l-4.542658954445595,0.36341271635564665 m-0.1817063581778238,3.6341271635564767 l-0.8176786118002072,4.724365312623418 -0.9993849699780308,3.452420805378652 l-0.36341271635564776,0.5451190745334711 -0.18170635817782388,0.0 l2.9073017308451807,-7.813373401646424 m0.7268254327112953,-0.7268254327112955 l0.4542658954445594,-0.18170635817782332 0.2725595372667358,0.726825432711295 l-0.2725595372667358,4.906071670801243 -1.7262104026893261,6.178016178046009 l-1.90791676086715,3.8158335217343007 -0.9085317908891194,0.9085317908891177 l1.9987699399560621,-9.448730625246837 " fill="none" stroke="black" stroke-width="1" /><path d="M27.089623119044973,31.087162998957098 m0.0,0.0 l-0.9085317908891188,17.443810385071085 -0.45426589544456,2.1804762981338865 l-0.7268254327112955,1.2719445072447666 0.8176786118002077,-27.074247368495747 m0.7268254327112955,-1.99876993995606 l1.1810913281558544,-0.36341271635564887 1.2719445072447666,2.3621826563117088 l0.5451190745334716,3.0890080890230065 0.6359722536223833,27.982779159384865 l-0.27255953726673554,1.8170635817782377 -0.18170635817782388,0.7268254327112955 l-0.4542658954445594,-0.90853179088912 -2.4530358354006214,-18.352342175960203 m0.18170635817782332,-0.9085317908891191 l0.27255953726673554,-0.726825432711295 2.1804762981338857,-0.9085317908891194 l-1.9079167608671492,5.4511907453347135 m2.6347421935784445,-1.0902381490669426 l0.9993849699780311,-1.4536508654225904 0.8176786118002072,-1.8170635817782377 l3.2707144472008287,-18.897461250493677 m0.36341271635564776,2.1804762981338843 l-0.18170635817782388,1.2719445072447666 -3.6341271635564762,4.542658954445595 m0.0,2.362182656311711 l0.4542658954445594,3.2707144472008274 1.5445040445115024,-2.180476298133885 l2.7255953726673567,-1.8170635817782377 3.906686700823212,0.7268254327112955 l0.0,1.8170635817782377 -1.8170635817782381,2.7255953726673576 l-4.542658954445595,0.36341271635564665 m-0.1817063581778238,3.6341271635564767 l-0.8176786118002072,4.724365312623418 -0.9993849699780308,3.452420805378652 l-0.36341271635564776,0.5451190745334711 -0.18170635817782388,0.0 l2.9073017308451807,-7.813373401646424 m0.7268254327112953,-0.7268254327112955 l0.4542658954445594,-0.18170635817782332 0.2725595372667358,0.726825432711295 l-0.2725595372667358,4.906071670801243 -1.7262104026893261,6.178016178046009 l-1.90791676086715,3.8158335217343007 -0.9085317908891194,0.9085317908891177 l1.9987699399560621,-9.448730625246837 m0.5451190745334713,-0.18170635817782388 l1.5445040445115024,1.0902381490669433 0.0,-0.18170635817782443 l0.7268254327112952,-6.178016178046009 " fill="none" stroke="black" stroke-width="1" /><path d="M27.089623119044973,31.087162998957098 m0.0,0.0 l-0.9085317908891188,17.443810385071085 -0.45426589544456,2.1804762981338865 l-0.7268254327112955,1.2719445072447666 0.8176786118002077,-27.074247368495747 m0.7268254327112955,-1.99876993995606 l1.1810913281558544,-0.36341271635564887 1.2719445072447666,2.3621826563117088 l0.5451190745334716,3.0890080890230065 0.6359722536223833,27.982779159384865 l-0.27255953726673554,1.8170635817782377 -0.18170635817782388,0.7268254327112955 l-0.4542658954445594,-0.90853179088912 -2.4530358354006214,-18.352342175960203 m0.18170635817782332,-0.9085317908891191 l0.27255953726673554,-0.726825432711295 2.1804762981338857,-0.9085317908891194 l-1.9079167608671492,5.4511907453347135 m2.6347421935784445,-1.0902381490669426 l0.9993849699780311,-1.4536508654225904 0.8176786118002072,-1.8170635817782377 l3.2707144472008287,-18.897461250493677 m0.36341271635564776,2.1804762981338843 l-0.18170635817782388,1.2719445072447666 -3.6341271635564762,4.542658954445595 m0.0,2.362182656311711 l0.4542658954445594,3.2707144472008274 1.5445040445115024,-2.180476298133885 l2.7255953726673567,-1.8170635817782377 3.906686700823212,0.7268254327112955 l0.0,1.8170635817782377 -1.8170635817782381,2.7255953726673576 l-4.542658954445595,0.36341271635564665 m-0.1817063581778238,3.6341271635564767 l-0.8176786118002072,4.724365312623418 -0.9993849699780308,3.452420805378652 l-0.36341271635564776,0.5451190745334711 -0.18170635817782388,0.0 l2.9073017308451807,-7.813373401646424 m0.7268254327112953,-0.7268254327112955 l0.4542658954445594,-0.18170635817782332 0.2725595372667358,0.726825432711295 l-0.2725595372667358,4.906071670801243 -1.7262104026893261,6.178016178046009 l-1.90791676086715,3.8158335217343007 -0.9085317908891194,0.9085317908891177 l1.9987699399560621,-9.448730625246837 m0.5451190745334713,-0.18170635817782388 l1.5445040445115024,1.0902381490669433 0.0,-0.18170635817782443 l0.7268254327112952,-6.178016178046009 m0.4542658954445594,-0.7268254327112952 l3.179861268111917,-3.0890080890230047 1.0902381490669422,0.36341271635564776 l0.18170635817782443,1.0902381490669426 -0.6359722536223833,5.269484387156891 l-0.8176786118002077,2.7255953726673576 -0.8176786118002066,1.8170635817782377 l-0.8176786118002072,0.90853179088912 -0.45426589544456,0.0 l0.0,-7.086547968935129 " fill="none" stroke="black" stroke-width="1" /><path d="M27.089623119044973,31.087162998957098 m0.0,0.0 l-0.9085317908891188,17.443810385071085 -0.45426589544456,2.1804762981338865 l-0.7268254327112955,1.2719445072447666 0.8176786118002077,-27.074247368495747 m0.7268254327112955,-1.99876993995606 l1.1810913281558544,-0.36341271635564887 1.2719445072447666,2.3621826563117088 l0.5451190745334716,3.0890080890230065 0.6359722536223833,27.982779159384865 l-0.27255953726673554,1.8170635817782377 -0.18170635817782388,0.7268254327112955 l-0.4542658954445594,-0.90853179088912 -2.4530358354006214,-18.352342175960203 m0.18170635817782332,-0.9085317908891191 l0.27255953726673554,-0.726825432711295 2.1804762981338857,-0.9085317908891194 l-1.9079167608671492,5.4511907453347135 m2.6347421935784445,-1.0902381490669426 l0.9993849699780311,-1.4536508654225904 0.8176786118002072,-1.8170635817782377 l3.2707144472008287,-18.897461250493677 m0.36341271635564776,2.1804762981338843 l-0.18170635817782388,1.2719445072447666 -3.6341271635564762,4.542658954445595 m0.0,2.362182656311711 l0.4542658954445594,3.2707144472008274 1.5445040445115024,-2.180476298133885 l2.7255953726673567,-1.8170635817782377 3.906686700823212,0.7268254327112955 l0.0,1.8170635817782377 -1.8170635817782381,2.7255953726673576 l-4.542658954445595,0.36341271635564665 m-0.1817063581778238,3.6341271635564767 l-0.8176786118002072,4.724365312623418 -0.9993849699780308,3.452420805378652 l-0.36341271635564776,0.5451190745334711 -0.18170635817782388,0.0 l2.9073017308451807,-7.813373401646424 m0.7268254327112953,-0.7268254327112955 l0.4542658954445594,-0.18170635817782332 0.2725595372667358,0.726825432711295 l-0.2725595372667358,4.906071670801243 -1.7262104026893261,6.178016178046009 l-1.90791676086715,3.8158335217343007 -0.9085317908891194,0.9085317908891177 l1.9987699399560621,-9.448730625246837 m0.5451190745334713,-0.18170635817782388 l1.5445040445115024,1.0902381490669433 0.0,-0.18170635817782443 l0.7268254327112952,-6.178016178046009 m0.4542658954445594,-0.7268254327112952 l3.179861268111917,-3.0890080890230047 1.0902381490669422,0.36341271635564776 l0.18170635817782443,1.0902381490669426 -0.6359722536223833,5.269484387156891 l-0.8176786118002077,2.7255953726673576 -0.8176786118002066,1.8170635817782377 l-0.8176786118002072,0.90853179088912 -0.45426589544456,0.0 l0.0,-7.086547968935129 m-0.27255953726673554,11.447500565202901 l1.3627976863336788,2.543889014489533 4.270099417178859,-0.7268254327112955 l1.6353572236004144,-1.6353572236004155 0.9993849699780322,-1.998769939956061 " fill="none" stroke="black" stroke-width="1" /><g filter="url(#id1)" transform="skewX(0) skewY(0) rotate(0)" /></svg>