<?xml version="1.0" encoding="utf-8" ?>
<svg baseProfile="full" height="66.33446165180199" version="1.1" width="69.17190334718543" xmlns="http://www.w3.org/2000/svg" xmlns:ev="http://www.w3.org/2001/xml-events" xmlns:xlink="http://www.w3.org/1999/xlink"><defs><filter id="id1"><feGaussianBlur in="SourceGraphic" stdDeviation="0" /></filter></defs><rect fill="white" height="66.33446165180199" width="69.17190334718543" x="0" y="0" /><path d="M25.613500907109934,25 m0.0,0.0 l0.1533752267774835,0.4601256803324505 0.306750453554967,1.840502721329802 l-0.38343806694370874,20.859030841737745 0.5368132937211922,-4.141131122992052 l0.38343806694370874,-13.190269502863575 0.306750453554967,-1.840502721329802 l0.8435637472761592,-0.7668761338874153 0.9969389740536416,0.306750453554967 l0.920251360664901,4.754632030101985 1.1503142008311256,17.17802539907814 l-0.07668761338874175,0.613500907109934 -1.4570646543860926,-2.1472531748847676 l-3.527630215882119,-8.895763153094038 -0.7668761338874164,-2.607378855217218 " fill="none" stroke="black" stroke-width="1" /><path d="M25.613500907109934,25 m0.0,0.0 l0.1533752267774835,0.4601256803324505 0.306750453554967,1.840502721329802 l-0.38343806694370874,20.859030841737745 0.5368132937211922,-4.141131122992052 l0.38343806694370874,-13.190269502863575 0.306750453554967,-1.840502721329802 l0.8435637472761592,-0.7668761338874153 0.9969389740536416,0.306750453554967 l0.920251360664901,4.754632030101985 1.1503142008311256,17.17802539907814 l-0.07668761338874175,0.613500907109934 -1.4570646543860926,-2.1472531748847676 l-3.527630215882119,-8.895763153094038 -0.7668761338874164,-2.607378855217218 m0.306750453554967,-1.5337522677748343 l0.4601256803324494,-0.1533752267774835 3.297567375715894,0.7668761338874175 l-2.8374416953834434,6.135009071099337 3.6810054426596026,-1.8405027213298013 l0.7668761338874169,-1.2270018142198673 0.3067504535549667,-3.0675045355496686 l0.07668761338874175,-4.908007256879469 3.1441921489384104,-5.061382483656953 " fill="none" stroke="black" stroke-width="1" /><path d="M25.613500907109934,25 m0.0,0.0 l0.1533752267774835,0.4601256803324505 0.306750453554967,1.840502721329802 l-0.38343806694370874,20.859030841737745 0.5368132937211922,-4.141131122992052 l0.38343806694370874,-13.190269502863575 0.306750453554967,-1.840502721329802 l0.8435637472761592,-0.7668761338874153 0.9969389740536416,0.306750453554967 l0.920251360664901,4.754632030101985 1.1503142008311256,17.17802539907814 l-0.07668761338874175,0.613500907109934 -1.4570646543860926,-2.1472531748847676 l-3.527630215882119,-8.895763153094038 -0.7668761338874164,-2.607378855217218 m0.306750453554967,-1.5337522677748343 l0.4601256803324494,-0.1533752267774835 3.297567375715894,0.7668761338874175 l-2.8374416953834434,6.135009071099337 3.6810054426596026,-1.8405027213298013 l0.7668761338874169,-1.2270018142198673 0.3067504535549667,-3.0675045355496686 l0.07668761338874175,-4.908007256879469 3.1441921489384104,-5.061382483656953 m1.1503142008311256,0.4601256803324505 l2.68406646860596,-1.0736265874423845 0.6901885204986752,0.4601256803324505 l0.38343806694370874,1.3803770409973515 -0.613500907109934,6.441759524654303 l-1.1503142008311251,5.214757710434436 -0.4601256803324505,0.6135009071099337 l-0.5368132937211922,-0.6135009071099337 -2.1472531748847676,-5.36813293721192 l-0.07668761338874161,-0.4601256803324505 3.3742549891046356,1.0736265874423845 l-2.8374416953834434,4.754632030101986 1.9171903347185426,-4.294506349769536 l0.1533752267774835,-1.5337522677748339 -0.9202513606649004,-4.141131122992053 l-0.5368132937211919,-0.1533752267774835 -0.6901885204986754,2.454003628439736 l0.0,19.325278573962912 0.23006284016622497,2.147253174884769 l0.38343806694370874,0.1533752267774835 2.147253174884768,-3.06750453554967 l2.990816922160927,-7.515386112096687 0.07668761338874175,-1.073626587442384 l-1.7638151079410602,-0.7668761338874172 -2.300628401662251,1.3803770409973508 l-0.9969389740536422,3.0675045355496686 1.610439881163576,1.8405027213298013 l2.1472531748847676,0.0 0.7668761338874175,-0.7668761338874175 l-1.7638151079410596,-2.914129308772185 -4.3711939631582775,-5.061382483656953 l-1.7638151079410593,-3.6810054426596017 " fill="none" stroke="black" stroke-width="1" /><path d="M25.613500907109934,25 m0.0,0.0 l0.1533752267774835,0.4601256803324505 0.306750453554967,1.840502721329802 l-0.38343806694370874,20.859030841737745 0.5368132937211922,-4.141131122992052 l0.38343806694370874,-13.190269502863575 0.306750453554967,-1.840502721329802 l0.8435637472761592,-0.7668761338874153 0.9969389740536416,0.306750453554967 l0.920251360664901,4.754632030101985 1.1503142008311256,17.17802539907814 l-0.07668761338874175,0.613500907109934 -1.4570646543860926,-2.1472531748847676 l-3.527630215882119,-8.895763153094038 -0.7668761338874164,-2.607378855217218 m0.306750453554967,-1.5337522677748343 l0.4601256803324494,-0.1533752267774835 3.297567375715894,0.7668761338874175 l-2.8374416953834434,6.135009071099337 3.6810054426596026,-1.8405027213298013 l0.7668761338874169,-1.2270018142198673 0.3067504535549667,-3.0675045355496686 l0.07668761338874175,-4.908007256879469 3.1441921489384104,-5.061382483656953 m1.1503142008311256,0.4601256803324505 l2.68406646860596,-1.0736265874423845 0.6901885204986752,0.4601256803324505 l0.38343806694370874,1.3803770409973515 -0.613500907109934,6.441759524654303 l-1.1503142008311251,5.214757710434436 -0.4601256803324505,0.6135009071099337 l-0.5368132937211922,-0.6135009071099337 -2.1472531748847676,-5.36813293721192 l-0.07668761338874161,-0.4601256803324505 3.3742549891046356,1.0736265874423845 l-2.8374416953834434,4.754632030101986 1.9171903347185426,-4.294506349769536 l0.1533752267774835,-1.5337522677748339 -0.9202513606649004,-4.141131122992053 l-0.5368132937211919,-0.1533752267774835 -0.6901885204986754,2.454003628439736 l0.0,19.325278573962912 0.23006284016622497,2.147253174884769 l0.38343806694370874,0.1533752267774835 2.147253174884768,-3.06750453554967 l2.990816922160927,-7.515386112096687 0.07668761338874175,-1.073626587442384 l-1.7638151079410602,-0.7668761338874172 -2.300628401662251,1.3803770409973508 l-0.9969389740536422,3.0675045355496686 1.610439881163576,1.8405027213298013 l2.1472531748847676,0.0 0.7668761338874175,-0.7668761338874175 l-1.7638151079410596,-2.914129308772185 -4.3711939631582775,-5.061382483656953 l-1.7638151079410593,-3.6810054426596017 m0.0,6.74850997820927 l0.2300628401662251,2.7607540819947016 1.0736265874423838,4.908007256879469 l-2.914129308772185,4.141131122992053 13.803770409973508,4.294506349769535 " fill="none" stroke="black" stroke-width="1" /><g filter="url(#id1)" transform="skewX(0) skewY(0) rotate(0)" /></svg>