<?xml version="1.0" encoding="utf-8" ?>
<svg baseProfile="full" height="72.64007945838011" version="1.1" width="69.72732069765284" xmlns="http://www.w3.org/2000/svg" xmlns:ev="http://www.w3.org/2001/xml-events" xmlns:xlink="http://www.w3.org/1999/xlink"><defs><filter id="id1"><feGaussianBlur in="SourceGraphic" stdDeviation="0" /></filter></defs><rect fill="white" height="72.64007945838011" width="69.72732069765284" x="0" y="0" /><path d="M25.132398125487605,27.383166258776853 m0.0,0.0 l-0.13239812548760277,0.0 1.0591850039008244,-1.0591850039008244 " fill="none" stroke="black" stroke-width="1" /><path d="M25.132398125487605,27.383166258776853 m0.0,0.0 l-0.13239812548760277,0.0 1.0591850039008244,-1.0591850039008244 m3.4423512626776787,7.679091278280975 l-0.3971943764628094,4.236740015603296 -0.9267868784132216,1.5887775058512366 l-3.177555011702472,-2.6479625097520607 " fill="none" stroke="black" stroke-width="1" /><path d="M25.132398125487605,27.383166258776853 m0.0,0.0 l-0.13239812548760277,0.0 1.0591850039008244,-1.0591850039008244 m3.4423512626776787,7.679091278280975 l-0.3971943764628094,4.236740015603296 -0.9267868784132216,1.5887775058512366 l-3.177555011702472,-2.6479625097520607 m1.853573756826442,10.06225753705783 l-0.13239812548760277,2.64796250975206 -1.323981254876031,4.766332517553709 " fill="none" stroke="black" stroke-width="1" /><path d="M25.132398125487605,27.383166258776853 m0.0,0.0 l-0.13239812548760277,0.0 1.0591850039008244,-1.0591850039008244 m3.4423512626776787,7.679091278280975 l-0.3971943764628094,4.236740015603296 -0.9267868784132216,1.5887775058512366 l-3.177555011702472,-2.6479625097520607 m1.853573756826442,10.06225753705783 l-0.13239812548760277,2.64796250975206 -1.323981254876031,4.766332517553709 m0.13239812548760388,-1.32398125487603 l5.428323144991723,-14.828590054611539 1.0591850039008244,-5.560721270479325 l0.13239812548760277,-10.327053788033036 " fill="none" stroke="black" stroke-width="1" /><path d="M25.132398125487605,27.383166258776853 m0.0,0.0 l-0.13239812548760277,0.0 1.0591850039008244,-1.0591850039008244 m3.4423512626776787,7.679091278280975 l-0.3971943764628094,4.236740015603296 -0.9267868784132216,1.5887775058512366 l-3.177555011702472,-2.6479625097520607 m1.853573756826442,10.06225753705783 l-0.13239812548760277,2.64796250975206 -1.323981254876031,4.766332517553709 m0.13239812548760388,-1.32398125487603 l5.428323144991723,-14.828590054611539 1.0591850039008244,-5.560721270479325 l0.13239812548760277,-10.327053788033036 m0.0,18.270941317289214 l-0.13239812548760277,1.0591850039008242 0.0,-19.33012632119004 " fill="none" stroke="black" stroke-width="1" /><path d="M25.132398125487605,27.383166258776853 m0.0,0.0 l-0.13239812548760277,0.0 1.0591850039008244,-1.0591850039008244 m3.4423512626776787,7.679091278280975 l-0.3971943764628094,4.236740015603296 -0.9267868784132216,1.5887775058512366 l-3.177555011702472,-2.6479625097520607 m1.853573756826442,10.06225753705783 l-0.13239812548760277,2.64796250975206 -1.323981254876031,4.766332517553709 m0.13239812548760388,-1.32398125487603 l5.428323144991723,-14.828590054611539 1.0591850039008244,-5.560721270479325 l0.13239812548760277,-10.327053788033036 m0.0,18.270941317289214 l-0.13239812548760277,1.0591850039008242 0.0,-19.33012632119004 m0.2647962509752058,0.0 l10.459451913520638,3.9719437646280897 -0.6619906274380161,7.414295027305769 l-0.661990627438015,2.1183700078016487 -1.4563793803636327,2.64796250975206 l-4.3691381410909,-7.414295027305769 " fill="none" stroke="black" stroke-width="1" /><path d="M25.132398125487605,27.383166258776853 m0.0,0.0 l-0.13239812548760277,0.0 1.0591850039008244,-1.0591850039008244 m3.4423512626776787,7.679091278280975 l-0.3971943764628094,4.236740015603296 -0.9267868784132216,1.5887775058512366 l-3.177555011702472,-2.6479625097520607 m1.853573756826442,10.06225753705783 l-0.13239812548760277,2.64796250975206 -1.323981254876031,4.766332517553709 m0.13239812548760388,-1.32398125487603 l5.428323144991723,-14.828590054611539 1.0591850039008244,-5.560721270479325 l0.13239812548760277,-10.327053788033036 m0.0,18.270941317289214 l-0.13239812548760277,1.0591850039008242 0.0,-19.33012632119004 m0.2647962509752058,0.0 l10.459451913520638,3.9719437646280897 -0.6619906274380161,7.414295027305769 l-0.661990627438015,2.1183700078016487 -1.4563793803636327,2.64796250975206 l-4.3691381410909,-7.414295027305769 m-0.5295925019504121,0.7943887529256188 l-3.309953137190075,15.622978807537155 -0.39719437646280886,1.0591850039008248 l-0.2647962509752061,-1.3239812548760304 6.222711897917341,-14.298997552661127 " fill="none" stroke="black" stroke-width="1" /><path d="M25.132398125487605,27.383166258776853 m0.0,0.0 l-0.13239812548760277,0.0 1.0591850039008244,-1.0591850039008244 m3.4423512626776787,7.679091278280975 l-0.3971943764628094,4.236740015603296 -0.9267868784132216,1.5887775058512366 l-3.177555011702472,-2.6479625097520607 m1.853573756826442,10.06225753705783 l-0.13239812548760277,2.64796250975206 -1.323981254876031,4.766332517553709 m0.13239812548760388,-1.32398125487603 l5.428323144991723,-14.828590054611539 1.0591850039008244,-5.560721270479325 l0.13239812548760277,-10.327053788033036 m0.0,18.270941317289214 l-0.13239812548760277,1.0591850039008242 0.0,-19.33012632119004 m0.2647962509752058,0.0 l10.459451913520638,3.9719437646280897 -0.6619906274380161,7.414295027305769 l-0.661990627438015,2.1183700078016487 -1.4563793803636327,2.64796250975206 l-4.3691381410909,-7.414295027305769 m-0.5295925019504121,0.7943887529256188 l-3.309953137190075,15.622978807537155 -0.39719437646280886,1.0591850039008248 l-0.2647962509752061,-1.3239812548760304 6.222711897917341,-14.298997552661127 m3.5747493881652814,9.532665035107417 l0.3971943764628094,0.7943887529256181 0.0,0.529592501950412 l-0.9267868784132216,0.0 -9.66506316059502,6.619906274380152 " fill="none" stroke="black" stroke-width="1" /><path d="M25.132398125487605,27.383166258776853 m0.0,0.0 l-0.13239812548760277,0.0 1.0591850039008244,-1.0591850039008244 m3.4423512626776787,7.679091278280975 l-0.3971943764628094,4.236740015603296 -0.9267868784132216,1.5887775058512366 l-3.177555011702472,-2.6479625097520607 m1.853573756826442,10.06225753705783 l-0.13239812548760277,2.64796250975206 -1.323981254876031,4.766332517553709 m0.13239812548760388,-1.32398125487603 l5.428323144991723,-14.828590054611539 1.0591850039008244,-5.560721270479325 l0.13239812548760277,-10.327053788033036 m0.0,18.270941317289214 l-0.13239812548760277,1.0591850039008242 0.0,-19.33012632119004 m0.2647962509752058,0.0 l10.459451913520638,3.9719437646280897 -0.6619906274380161,7.414295027305769 l-0.661990627438015,2.1183700078016487 -1.4563793803636327,2.64796250975206 l-4.3691381410909,-7.414295027305769 m-0.5295925019504121,0.7943887529256188 l-3.309953137190075,15.622978807537155 -0.39719437646280886,1.0591850039008248 l-0.2647962509752061,-1.3239812548760304 6.222711897917341,-14.298997552661127 m3.5747493881652814,9.532665035107417 l0.3971943764628094,0.7943887529256181 0.0,0.529592501950412 l-0.9267868784132216,0.0 -9.66506316059502,6.619906274380152 m11.651035042909065,-2.6479625097520607 l-0.13239812548760277,0.5295925019504122 -0.7943887529256188,0.5295925019504122 l-4.104341890115693,-9.532665035107417 " fill="none" stroke="black" stroke-width="1" /><path d="M25.132398125487605,27.383166258776853 m0.0,0.0 l-0.13239812548760277,0.0 1.0591850039008244,-1.0591850039008244 m3.4423512626776787,7.679091278280975 l-0.3971943764628094,4.236740015603296 -0.9267868784132216,1.5887775058512366 l-3.177555011702472,-2.6479625097520607 m1.853573756826442,10.06225753705783 l-0.13239812548760277,2.64796250975206 -1.323981254876031,4.766332517553709 m0.13239812548760388,-1.32398125487603 l5.428323144991723,-14.828590054611539 1.0591850039008244,-5.560721270479325 l0.13239812548760277,-10.327053788033036 m0.0,18.270941317289214 l-0.13239812548760277,1.0591850039008242 0.0,-19.33012632119004 m0.2647962509752058,0.0 l10.459451913520638,3.9719437646280897 -0.6619906274380161,7.414295027305769 l-0.661990627438015,2.1183700078016487 -1.4563793803636327,2.64796250975206 l-4.3691381410909,-7.414295027305769 m-0.5295925019504121,0.7943887529256188 l-3.309953137190075,15.622978807537155 -0.39719437646280886,1.0591850039008248 l-0.2647962509752061,-1.3239812548760304 6.222711897917341,-14.298997552661127 m3.5747493881652814,9.532665035107417 l0.3971943764628094,0.7943887529256181 0.0,0.529592501950412 l-0.9267868784132216,0.0 -9.66506316059502,6.619906274380152 m11.651035042909065,-2.6479625097520607 l-0.13239812548760277,0.5295925019504122 -0.7943887529256188,0.5295925019504122 l-4.104341890115693,-9.532665035107417 m-0.661990627438015,25.420440093619778 l-0.39719437646280914,2.64796250975206 -0.2647962509752061,0.26479625097520554 l0.2647962509752061,-19.33012632119004 " fill="none" stroke="black" stroke-width="1" /><path d="M25.132398125487605,27.383166258776853 m0.0,0.0 l-0.13239812548760277,0.0 1.0591850039008244,-1.0591850039008244 m3.4423512626776787,7.679091278280975 l-0.3971943764628094,4.236740015603296 -0.9267868784132216,1.5887775058512366 l-3.177555011702472,-2.6479625097520607 m1.853573756826442,10.06225753705783 l-0.13239812548760277,2.64796250975206 -1.323981254876031,4.766332517553709 m0.13239812548760388,-1.32398125487603 l5.428323144991723,-14.828590054611539 1.0591850039008244,-5.560721270479325 l0.13239812548760277,-10.327053788033036 m0.0,18.270941317289214 l-0.13239812548760277,1.0591850039008242 0.0,-19.33012632119004 m0.2647962509752058,0.0 l10.459451913520638,3.9719437646280897 -0.6619906274380161,7.414295027305769 l-0.661990627438015,2.1183700078016487 -1.4563793803636327,2.64796250975206 l-4.3691381410909,-7.414295027305769 m-0.5295925019504121,0.7943887529256188 l-3.309953137190075,15.622978807537155 -0.39719437646280886,1.0591850039008248 l-0.2647962509752061,-1.3239812548760304 6.222711897917341,-14.298997552661127 m3.5747493881652814,9.532665035107417 l0.3971943764628094,0.7943887529256181 0.0,0.529592501950412 l-0.9267868784132216,0.0 -9.66506316059502,6.619906274380152 m11.651035042909065,-2.6479625097520607 l-0.13239812548760277,0.5295925019504122 -0.7943887529256188,0.5295925019504122 l-4.104341890115693,-9.532665035107417 m-0.661990627438015,25.420440093619778 l-0.39719437646280914,2.64796250975206 -0.2647962509752061,0.26479625097520554 l0.2647962509752061,-19.33012632119004 m-0.2647962509752061,1.5887775058512366 l-2.6479625097520603,7.679091278280975 -2.9127587607272662,5.29592501950412 l-0.661990627438015,0.0 7.943887529256181,-10.327053788033034 " fill="none" stroke="black" stroke-width="1" /><path d="M25.132398125487605,27.383166258776853 m0.0,0.0 l-0.13239812548760277,0.0 1.0591850039008244,-1.0591850039008244 m3.4423512626776787,7.679091278280975 l-0.3971943764628094,4.236740015603296 -0.9267868784132216,1.5887775058512366 l-3.177555011702472,-2.6479625097520607 m1.853573756826442,10.06225753705783 l-0.13239812548760277,2.64796250975206 -1.323981254876031,4.766332517553709 m0.13239812548760388,-1.32398125487603 l5.428323144991723,-14.828590054611539 1.0591850039008244,-5.560721270479325 l0.13239812548760277,-10.327053788033036 m0.0,18.270941317289214 l-0.13239812548760277,1.0591850039008242 0.0,-19.33012632119004 m0.2647962509752058,0.0 l10.459451913520638,3.9719437646280897 -0.6619906274380161,7.414295027305769 l-0.661990627438015,2.1183700078016487 -1.4563793803636327,2.64796250975206 l-4.3691381410909,-7.414295027305769 m-0.5295925019504121,0.7943887529256188 l-3.309953137190075,15.622978807537155 -0.39719437646280886,1.0591850039008248 l-0.2647962509752061,-1.3239812548760304 6.222711897917341,-14.298997552661127 m3.5747493881652814,9.532665035107417 l0.3971943764628094,0.7943887529256181 0.0,0.529592501950412 l-0.9267868784132216,0.0 -9.66506316059502,6.619906274380152 m11.651035042909065,-2.6479625097520607 l-0.13239812548760277,0.5295925019504122 -0.7943887529256188,0.5295925019504122 l-4.104341890115693,-9.532665035107417 m-0.661990627438015,25.420440093619778 l-0.39719437646280914,2.64796250975206 -0.2647962509752061,0.26479625097520554 l0.2647962509752061,-19.33012632119004 m-0.2647962509752061,1.5887775058512366 l-2.6479625097520603,7.679091278280975 -2.9127587607272662,5.29592501950412 l-0.661990627438015,0.0 7.943887529256181,-10.327053788033034 m0.926786878413221,0.5295925019504122 l5.295925019504121,6.619906274380152 0.7943887529256177,0.5295925019504111 " fill="none" stroke="black" stroke-width="1" /><g filter="url(#id1)" transform="skewX(0) skewY(0) rotate(0)" /></svg>