<?xml version="1.0" encoding="utf-8" ?>
<svg baseProfile="full" height="67.68902159267293" version="1.1" width="67.13042091079906" xmlns="http://www.w3.org/2000/svg" xmlns:ev="http://www.w3.org/2001/xml-events" xmlns:xlink="http://www.w3.org/1999/xlink"><defs><filter id="id1"><feGaussianBlur in="SourceGraphic" stdDeviation="0" /></filter></defs><rect fill="white" height="67.68902159267293" width="67.13042091079906" x="0" y="0" /><path d="M26.396501704684706,31.05150738696706 m0.0,0.0 l0.18620022729129437,-0.37240045458258875 0.09310011364564663,1.8620022729129404 l-0.09310011364564663,6.144607500612703 -1.396501704684705,11.544414092060231 l0.0,-0.9310011364564708 -0.18620022729129437,-1.675802045621646 l0.837901022810823,-19.178623411003286 " fill="none" stroke="black" stroke-width="1" /><path d="M26.396501704684706,31.05150738696706 m0.0,0.0 l0.18620022729129437,-0.37240045458258875 0.09310011364564663,1.8620022729129404 l-0.09310011364564663,6.144607500612703 -1.396501704684705,11.544414092060231 l0.0,-0.9310011364564708 -0.18620022729129437,-1.675802045621646 l0.837901022810823,-19.178623411003286 m0.558600681873882,-2.9792036366607033 l1.117201363747764,-2.0482025002042348 1.8620022729129404,2.606803182078117 l0.279300340936941,2.234402727495528 0.18620022729129437,8.192810000816937 l-0.7448009091651764,14.709817956012229 -0.4655005682282354,0.3724004545825865 l-0.37240045458258764,-1.3034015910390573 -1.4896018183303528,-11.730614319351524 " fill="none" stroke="black" stroke-width="1" /><path d="M26.396501704684706,31.05150738696706 m0.0,0.0 l0.18620022729129437,-0.37240045458258875 0.09310011364564663,1.8620022729129404 l-0.09310011364564663,6.144607500612703 -1.396501704684705,11.544414092060231 l0.0,-0.9310011364564708 -0.18620022729129437,-1.675802045621646 l0.837901022810823,-19.178623411003286 m0.558600681873882,-2.9792036366607033 l1.117201363747764,-2.0482025002042348 1.8620022729129404,2.606803182078117 l0.279300340936941,2.234402727495528 0.18620022729129437,8.192810000816937 l-0.7448009091651764,14.709817956012229 -0.4655005682282354,0.3724004545825865 l-0.37240045458258764,-1.3034015910390573 -1.4896018183303528,-11.730614319351524 m-0.09310011364564663,-0.93100113645647 l0.0,-0.7448009091651762 1.396501704684705,-0.3724004545825879 l-0.837901022810823,3.537804318534586 0.37240045458258875,1.8620022729129406 l0.0,1.117201363747764 -0.09310011364564774,1.3034015910390584 l-0.37240045458258764,1.4896018183303517 -0.9310011364564708,2.606803182078117 l-0.09310011364564663,0.37240045458258764 2.7930034093694105,-1.3034015910390573 l0.6517007955195292,-1.4896018183303528 5.213606364156232,-26.999032957237635 " fill="none" stroke="black" stroke-width="1" /><path d="M26.396501704684706,31.05150738696706 m0.0,0.0 l0.18620022729129437,-0.37240045458258875 0.09310011364564663,1.8620022729129404 l-0.09310011364564663,6.144607500612703 -1.396501704684705,11.544414092060231 l0.0,-0.9310011364564708 -0.18620022729129437,-1.675802045621646 l0.837901022810823,-19.178623411003286 m0.558600681873882,-2.9792036366607033 l1.117201363747764,-2.0482025002042348 1.8620022729129404,2.606803182078117 l0.279300340936941,2.234402727495528 0.18620022729129437,8.192810000816937 l-0.7448009091651764,14.709817956012229 -0.4655005682282354,0.3724004545825865 l-0.37240045458258764,-1.3034015910390573 -1.4896018183303528,-11.730614319351524 m-0.09310011364564663,-0.93100113645647 l0.0,-0.7448009091651762 1.396501704684705,-0.3724004545825879 l-0.837901022810823,3.537804318534586 0.37240045458258875,1.8620022729129406 l0.0,1.117201363747764 -0.09310011364564774,1.3034015910390584 l-0.37240045458258764,1.4896018183303517 -0.9310011364564708,2.606803182078117 l-0.09310011364564663,0.37240045458258764 2.7930034093694105,-1.3034015910390573 l0.6517007955195292,-1.4896018183303528 5.213606364156232,-26.999032957237635 m0.8379010228108232,1.117201363747764 l0.279300340936941,1.3034015910390573 0.09310011364564691,1.3034015910390595 l-0.744800909165176,0.18620022729129326 -2.886103523015058,1.8620022729129415 " fill="none" stroke="black" stroke-width="1" /><path d="M26.396501704684706,31.05150738696706 m0.0,0.0 l0.18620022729129437,-0.37240045458258875 0.09310011364564663,1.8620022729129404 l-0.09310011364564663,6.144607500612703 -1.396501704684705,11.544414092060231 l0.0,-0.9310011364564708 -0.18620022729129437,-1.675802045621646 l0.837901022810823,-19.178623411003286 m0.558600681873882,-2.9792036366607033 l1.117201363747764,-2.0482025002042348 1.8620022729129404,2.606803182078117 l0.279300340936941,2.234402727495528 0.18620022729129437,8.192810000816937 l-0.7448009091651764,14.709817956012229 -0.4655005682282354,0.3724004545825865 l-0.37240045458258764,-1.3034015910390573 -1.4896018183303528,-11.730614319351524 m-0.09310011364564663,-0.93100113645647 l0.0,-0.7448009091651762 1.396501704684705,-0.3724004545825879 l-0.837901022810823,3.537804318534586 0.37240045458258875,1.8620022729129406 l0.0,1.117201363747764 -0.09310011364564774,1.3034015910390584 l-0.37240045458258764,1.4896018183303517 -0.9310011364564708,2.606803182078117 l-0.09310011364564663,0.37240045458258764 2.7930034093694105,-1.3034015910390573 l0.6517007955195292,-1.4896018183303528 5.213606364156232,-26.999032957237635 m0.8379010228108232,1.117201363747764 l0.279300340936941,1.3034015910390573 0.09310011364564691,1.3034015910390595 l-0.744800909165176,0.18620022729129326 -2.886103523015058,1.8620022729129415 m0.09310011364564691,4.468805454991056 l1.6758020456216463,-2.79300340936941 2.699903295723763,-1.8620022729129415 l3.072303750306351,-1.117201363747764 0.7448009091651764,0.37240045458258875 l-0.4655005682282354,2.234402727495528 -2.1413026138498807,3.351604091243292 l-4.189505114054115,2.606803182078117 " fill="none" stroke="black" stroke-width="1" /><path d="M26.396501704684706,31.05150738696706 m0.0,0.0 l0.18620022729129437,-0.37240045458258875 0.09310011364564663,1.8620022729129404 l-0.09310011364564663,6.144607500612703 -1.396501704684705,11.544414092060231 l0.0,-0.9310011364564708 -0.18620022729129437,-1.675802045621646 l0.837901022810823,-19.178623411003286 m0.558600681873882,-2.9792036366607033 l1.117201363747764,-2.0482025002042348 1.8620022729129404,2.606803182078117 l0.279300340936941,2.234402727495528 0.18620022729129437,8.192810000816937 l-0.7448009091651764,14.709817956012229 -0.4655005682282354,0.3724004545825865 l-0.37240045458258764,-1.3034015910390573 -1.4896018183303528,-11.730614319351524 m-0.09310011364564663,-0.93100113645647 l0.0,-0.7448009091651762 1.396501704684705,-0.3724004545825879 l-0.837901022810823,3.537804318534586 0.37240045458258875,1.8620022729129406 l0.0,1.117201363747764 -0.09310011364564774,1.3034015910390584 l-0.37240045458258764,1.4896018183303517 -0.9310011364564708,2.606803182078117 l-0.09310011364564663,0.37240045458258764 2.7930034093694105,-1.3034015910390573 l0.6517007955195292,-1.4896018183303528 5.213606364156232,-26.999032957237635 m0.8379010228108232,1.117201363747764 l0.279300340936941,1.3034015910390573 0.09310011364564691,1.3034015910390595 l-0.744800909165176,0.18620022729129326 -2.886103523015058,1.8620022729129415 m0.09310011364564691,4.468805454991056 l1.6758020456216463,-2.79300340936941 2.699903295723763,-1.8620022729129415 l3.072303750306351,-1.117201363747764 0.7448009091651764,0.37240045458258875 l-0.4655005682282354,2.234402727495528 -2.1413026138498807,3.351604091243292 l-4.189505114054115,2.606803182078117 m0.186200227291294,-0.18620022729129437 l3.0723037503063515,-1.117201363747764 -1.9551023865585873,3.3516040912432925 l-0.5586006818738821,1.3034015910390584 1.3034015910390584,0.18620022729129382 l1.5827019319759994,-1.117201363747764 -0.18620022729129437,0.0 l-2.513703068432469,2.0482025002042343 -5.30670647780188,6.330807727903996 l-0.09310011364564719,-0.37240045458258764 10.334112614666818,-4.096405000408469 l1.8620022729129404,-1.675802045621646 0.558600681873882,-1.3034015910390584 l-0.37240045458258875,0.0 -4.003304886762821,-8.006609773525643 " fill="none" stroke="black" stroke-width="1" /><path d="M26.396501704684706,31.05150738696706 m0.0,0.0 l0.18620022729129437,-0.37240045458258875 0.09310011364564663,1.8620022729129404 l-0.09310011364564663,6.144607500612703 -1.396501704684705,11.544414092060231 l0.0,-0.9310011364564708 -0.18620022729129437,-1.675802045621646 l0.837901022810823,-19.178623411003286 m0.558600681873882,-2.9792036366607033 l1.117201363747764,-2.0482025002042348 1.8620022729129404,2.606803182078117 l0.279300340936941,2.234402727495528 0.18620022729129437,8.192810000816937 l-0.7448009091651764,14.709817956012229 -0.4655005682282354,0.3724004545825865 l-0.37240045458258764,-1.3034015910390573 -1.4896018183303528,-11.730614319351524 m-0.09310011364564663,-0.93100113645647 l0.0,-0.7448009091651762 1.396501704684705,-0.3724004545825879 l-0.837901022810823,3.537804318534586 0.37240045458258875,1.8620022729129406 l0.0,1.117201363747764 -0.09310011364564774,1.3034015910390584 l-0.37240045458258764,1.4896018183303517 -0.9310011364564708,2.606803182078117 l-0.09310011364564663,0.37240045458258764 2.7930034093694105,-1.3034015910390573 l0.6517007955195292,-1.4896018183303528 5.213606364156232,-26.999032957237635 m0.8379010228108232,1.117201363747764 l0.279300340936941,1.3034015910390573 0.09310011364564691,1.3034015910390595 l-0.744800909165176,0.18620022729129326 -2.886103523015058,1.8620022729129415 m0.09310011364564691,4.468805454991056 l1.6758020456216463,-2.79300340936941 2.699903295723763,-1.8620022729129415 l3.072303750306351,-1.117201363747764 0.7448009091651764,0.37240045458258875 l-0.4655005682282354,2.234402727495528 -2.1413026138498807,3.351604091243292 l-4.189505114054115,2.606803182078117 m0.186200227291294,-0.18620022729129437 l3.0723037503063515,-1.117201363747764 -1.9551023865585873,3.3516040912432925 l-0.5586006818738821,1.3034015910390584 1.3034015910390584,0.18620022729129382 l1.5827019319759994,-1.117201363747764 -0.18620022729129437,0.0 l-2.513703068432469,2.0482025002042343 -5.30670647780188,6.330807727903996 l-0.09310011364564719,-0.37240045458258764 10.334112614666818,-4.096405000408469 l1.8620022729129404,-1.675802045621646 0.558600681873882,-1.3034015910390584 l-0.37240045458258875,0.0 -4.003304886762821,-8.006609773525643 m0.0,-0.7448009091651753 l0.0,0.37240045458258875 -2.141302613849881,20.854425456624927 l1.3034015910390577,-2.979203636660704 0.5586006818738826,0.7448009091651764 l-0.6517007955195292,6.703208182486585 1.0241012501021167,-5.213606364156234 l3.2585039775976457,-5.027406136864938 0.558600681873882,0.3724004545825882 l0.279300340936941,1.4896018183303517 -0.6517007955195286,5.02740613686494 l-1.5827019319759994,4.282605227699762 -1.6758020456216465,1.117201363747764 l3.6309044321802335,-4.0964050004084696 " fill="none" stroke="black" stroke-width="1" /><g filter="url(#id1)" transform="skewX(0) skewY(0) rotate(0)" /></svg>