<?xml version="1.0" encoding="utf-8" ?>
<svg baseProfile="full" height="69.23003618085076" version="1.1" width="71.1176470943085" xmlns="http://www.w3.org/2000/svg" xmlns:ev="http://www.w3.org/2001/xml-events" xmlns:xlink="http://www.w3.org/1999/xlink"><defs><filter id="id1"><feGaussianBlur in="SourceGraphic" stdDeviation="0" /></filter></defs><rect fill="white" height="69.23003618085076" width="71.1176470943085" x="0" y="0" /><path d="M29.483075919462138,25 m0.0,0.0 l-0.35392704627332683,0.23595136418221863 -0.7078540925466537,13.921130486750855 l-2.595465006004397,16.75254685693747 -0.8258297746377619,0.9438054567288712 l3.1853434164599412,-20.291817319670738 " fill="none" stroke="black" stroke-width="1" /><path d="M29.483075919462138,25 m0.0,0.0 l-0.35392704627332683,0.23595136418221863 -0.7078540925466537,13.921130486750855 l-2.595465006004397,16.75254685693747 -0.8258297746377619,0.9438054567288712 l3.1853434164599412,-20.291817319670738 m0.35392704627332683,-0.7078540925466537 l6.7246138791932095,-1.1797568209110887 -2.7134406880955058,4.483075919462139 l-4.601051601553249,7.786395018013191 " fill="none" stroke="black" stroke-width="1" /><path d="M29.483075919462138,25 m0.0,0.0 l-0.35392704627332683,0.23595136418221863 -0.7078540925466537,13.921130486750855 l-2.595465006004397,16.75254685693747 -0.8258297746377619,0.9438054567288712 l3.1853434164599412,-20.291817319670738 m0.35392704627332683,-0.7078540925466537 l6.7246138791932095,-1.1797568209110887 -2.7134406880955058,4.483075919462139 l-4.601051601553249,7.786395018013191 m0.0,-0.47190272836443586 l7.550443653830972,-1.6516595492755253 -1.0617811388199803,-0.9438054567288712 l-2.595465006004397,-8.258297746377625 " fill="none" stroke="black" stroke-width="1" /><path d="M29.483075919462138,25 m0.0,0.0 l-0.35392704627332683,0.23595136418221863 -0.7078540925466537,13.921130486750855 l-2.595465006004397,16.75254685693747 -0.8258297746377619,0.9438054567288712 l3.1853434164599412,-20.291817319670738 m0.35392704627332683,-0.7078540925466537 l6.7246138791932095,-1.1797568209110887 -2.7134406880955058,4.483075919462139 l-4.601051601553249,7.786395018013191 m0.0,-0.47190272836443586 l7.550443653830972,-1.6516595492755253 -1.0617811388199803,-0.9438054567288712 l-2.595465006004397,-8.258297746377625 m-0.11797568209110876,0.7078540925466537 l0.11797568209110876,16.51659549275525 -0.9438054567288717,5.898784104555445 l-0.5898784104555443,0.47190272836443725 -0.7078540925466537,-1.4157081850933084 l-0.23595136418221807,-8.494249110559844 " fill="none" stroke="black" stroke-width="1" /><path d="M29.483075919462138,25 m0.0,0.0 l-0.35392704627332683,0.23595136418221863 -0.7078540925466537,13.921130486750855 l-2.595465006004397,16.75254685693747 -0.8258297746377619,0.9438054567288712 l3.1853434164599412,-20.291817319670738 m0.35392704627332683,-0.7078540925466537 l6.7246138791932095,-1.1797568209110887 -2.7134406880955058,4.483075919462139 l-4.601051601553249,7.786395018013191 m0.0,-0.47190272836443586 l7.550443653830972,-1.6516595492755253 -1.0617811388199803,-0.9438054567288712 l-2.595465006004397,-8.258297746377625 m-0.11797568209110876,0.7078540925466537 l0.11797568209110876,16.51659549275525 -0.9438054567288717,5.898784104555445 l-0.5898784104555443,0.47190272836443725 -0.7078540925466537,-1.4157081850933084 l-0.23595136418221807,-8.494249110559844 m-0.23595136418221807,8.258297746377625 l-0.9438054567288712,4.954978647826575 4.837002965735466,-4.247124555279922 l1.1797568209110894,-1.6516595492755248 -0.11797568209110897,-1.4157081850933073 l0.9438054567288717,-7.0785409254665375 " fill="none" stroke="black" stroke-width="1" /><path d="M29.483075919462138,25 m0.0,0.0 l-0.35392704627332683,0.23595136418221863 -0.7078540925466537,13.921130486750855 l-2.595465006004397,16.75254685693747 -0.8258297746377619,0.9438054567288712 l3.1853434164599412,-20.291817319670738 m0.35392704627332683,-0.7078540925466537 l6.7246138791932095,-1.1797568209110887 -2.7134406880955058,4.483075919462139 l-4.601051601553249,7.786395018013191 m0.0,-0.47190272836443586 l7.550443653830972,-1.6516595492755253 -1.0617811388199803,-0.9438054567288712 l-2.595465006004397,-8.258297746377625 m-0.11797568209110876,0.7078540925466537 l0.11797568209110876,16.51659549275525 -0.9438054567288717,5.898784104555445 l-0.5898784104555443,0.47190272836443725 -0.7078540925466537,-1.4157081850933084 l-0.23595136418221807,-8.494249110559844 m-0.23595136418221807,8.258297746377625 l-0.9438054567288712,4.954978647826575 4.837002965735466,-4.247124555279922 l1.1797568209110894,-1.6516595492755248 -0.11797568209110897,-1.4157081850933073 l0.9438054567288717,-7.0785409254665375 m0.0,8.494249110559844 l-1.1797568209110894,6.842589561284319 2.3595136418221787,-24.53894187495066 " fill="none" stroke="black" stroke-width="1" /><path d="M29.483075919462138,25 m0.0,0.0 l-0.35392704627332683,0.23595136418221863 -0.7078540925466537,13.921130486750855 l-2.595465006004397,16.75254685693747 -0.8258297746377619,0.9438054567288712 l3.1853434164599412,-20.291817319670738 m0.35392704627332683,-0.7078540925466537 l6.7246138791932095,-1.1797568209110887 -2.7134406880955058,4.483075919462139 l-4.601051601553249,7.786395018013191 m0.0,-0.47190272836443586 l7.550443653830972,-1.6516595492755253 -1.0617811388199803,-0.9438054567288712 l-2.595465006004397,-8.258297746377625 m-0.11797568209110876,0.7078540925466537 l0.11797568209110876,16.51659549275525 -0.9438054567288717,5.898784104555445 l-0.5898784104555443,0.47190272836443725 -0.7078540925466537,-1.4157081850933084 l-0.23595136418221807,-8.494249110559844 m-0.23595136418221807,8.258297746377625 l-0.9438054567288712,4.954978647826575 4.837002965735466,-4.247124555279922 l1.1797568209110894,-1.6516595492755248 -0.11797568209110897,-1.4157081850933073 l0.9438054567288717,-7.0785409254665375 m0.0,8.494249110559844 l-1.1797568209110894,6.842589561284319 2.3595136418221787,-24.53894187495066 m-0.23595136418221807,-0.23595136418221752 l5.4268813761910115,-0.47190272836443614 1.0617811388199805,-0.47190272836443503 l-0.35392704627332683,-0.7078540925466537 -1.5336838671844166,1.1797568209110887 " fill="none" stroke="black" stroke-width="1" /><path d="M29.483075919462138,25 m0.0,0.0 l-0.35392704627332683,0.23595136418221863 -0.7078540925466537,13.921130486750855 l-2.595465006004397,16.75254685693747 -0.8258297746377619,0.9438054567288712 l3.1853434164599412,-20.291817319670738 m0.35392704627332683,-0.7078540925466537 l6.7246138791932095,-1.1797568209110887 -2.7134406880955058,4.483075919462139 l-4.601051601553249,7.786395018013191 m0.0,-0.47190272836443586 l7.550443653830972,-1.6516595492755253 -1.0617811388199803,-0.9438054567288712 l-2.595465006004397,-8.258297746377625 m-0.11797568209110876,0.7078540925466537 l0.11797568209110876,16.51659549275525 -0.9438054567288717,5.898784104555445 l-0.5898784104555443,0.47190272836443725 -0.7078540925466537,-1.4157081850933084 l-0.23595136418221807,-8.494249110559844 m-0.23595136418221807,8.258297746377625 l-0.9438054567288712,4.954978647826575 4.837002965735466,-4.247124555279922 l1.1797568209110894,-1.6516595492755248 -0.11797568209110897,-1.4157081850933073 l0.9438054567288717,-7.0785409254665375 m0.0,8.494249110559844 l-1.1797568209110894,6.842589561284319 2.3595136418221787,-24.53894187495066 m-0.23595136418221807,-0.23595136418221752 l5.4268813761910115,-0.47190272836443614 1.0617811388199805,-0.47190272836443503 l-0.35392704627332683,-0.7078540925466537 -1.5336838671844166,1.1797568209110887 m-0.23595136418221752,0.47190272836443614 l0.23595136418221752,11.08971411656424 -0.23595136418221752,4.247124555279922 l-0.825829774637763,3.5392704627332683 -1.1797568209110891,-0.47190272836443614 l-2.3595136418221787,3.067367734368832 " fill="none" stroke="black" stroke-width="1" /><path d="M29.483075919462138,25 m0.0,0.0 l-0.35392704627332683,0.23595136418221863 -0.7078540925466537,13.921130486750855 l-2.595465006004397,16.75254685693747 -0.8258297746377619,0.9438054567288712 l3.1853434164599412,-20.291817319670738 m0.35392704627332683,-0.7078540925466537 l6.7246138791932095,-1.1797568209110887 -2.7134406880955058,4.483075919462139 l-4.601051601553249,7.786395018013191 m0.0,-0.47190272836443586 l7.550443653830972,-1.6516595492755253 -1.0617811388199803,-0.9438054567288712 l-2.595465006004397,-8.258297746377625 m-0.11797568209110876,0.7078540925466537 l0.11797568209110876,16.51659549275525 -0.9438054567288717,5.898784104555445 l-0.5898784104555443,0.47190272836443725 -0.7078540925466537,-1.4157081850933084 l-0.23595136418221807,-8.494249110559844 m-0.23595136418221807,8.258297746377625 l-0.9438054567288712,4.954978647826575 4.837002965735466,-4.247124555279922 l1.1797568209110894,-1.6516595492755248 -0.11797568209110897,-1.4157081850933073 l0.9438054567288717,-7.0785409254665375 m0.0,8.494249110559844 l-1.1797568209110894,6.842589561284319 2.3595136418221787,-24.53894187495066 m-0.23595136418221807,-0.23595136418221752 l5.4268813761910115,-0.47190272836443614 1.0617811388199805,-0.47190272836443503 l-0.35392704627332683,-0.7078540925466537 -1.5336838671844166,1.1797568209110887 m-0.23595136418221752,0.47190272836443614 l0.23595136418221752,11.08971411656424 -0.23595136418221752,4.247124555279922 l-0.825829774637763,3.5392704627332683 -1.1797568209110891,-0.47190272836443614 l-2.3595136418221787,3.067367734368832 m10.145908659835369,-2.123562277639961 l0.0,-0.47190272836443503 " fill="none" stroke="black" stroke-width="1" /><g filter="url(#id1)" transform="skewX(0) skewY(0) rotate(0)" /></svg>