<?xml version="1.0" encoding="utf-8" ?>
<svg baseProfile="full" height="80.9093590892706" version="1.1" width="70.66223460858849" xmlns="http://www.w3.org/2000/svg" xmlns:ev="http://www.w3.org/2001/xml-events" xmlns:xlink="http://www.w3.org/1999/xlink"><defs><filter id="id1"><feGaussianBlur in="SourceGraphic" stdDeviation="0" /></filter></defs><rect fill="white" height="80.9093590892706" width="70.66223460858849" x="0" y="0" /><path d="M25,32.39136847786905 m0.0,0.0 l0.0,-1.3438851777943728 0.5039569416728895,-1.3438851777943728 l1.6798564722429665,-1.343885177794375 16.294607780756778,-6.719425888971866 l-0.8399282361214833,1.007913883345779 -9.575181891784911,-5.0395694167289 " fill="none" stroke="black" stroke-width="1" /><path d="M25,32.39136847786905 m0.0,0.0 l0.0,-1.3438851777943728 0.5039569416728895,-1.3438851777943728 l1.6798564722429665,-1.343885177794375 16.294607780756778,-6.719425888971866 l-0.8399282361214833,1.007913883345779 -9.575181891784911,-5.0395694167289 m0.0,0.6719425888971875 l-1.6798564722429667,18.478421194672634 -0.16798564722429687,0.0 l7.05539718342046,-17.13453601687826 " fill="none" stroke="black" stroke-width="1" /><path d="M25,32.39136847786905 m0.0,0.0 l0.0,-1.3438851777943728 0.5039569416728895,-1.3438851777943728 l1.6798564722429665,-1.343885177794375 16.294607780756778,-6.719425888971866 l-0.8399282361214833,1.007913883345779 -9.575181891784911,-5.0395694167289 m0.0,0.6719425888971875 l-1.6798564722429667,18.478421194672634 -0.16798564722429687,0.0 l7.05539718342046,-17.13453601687826 m0.5039569416728901,0.33597129444859597 l0.0,1.6798564722429665 -4.871583769504603,14.446765661289515 l-2.183813413915857,3.6956842389345255 -4.53561247505601,5.375540711177494 " fill="none" stroke="black" stroke-width="1" /><path d="M25,32.39136847786905 m0.0,0.0 l0.0,-1.3438851777943728 0.5039569416728895,-1.3438851777943728 l1.6798564722429665,-1.343885177794375 16.294607780756778,-6.719425888971866 l-0.8399282361214833,1.007913883345779 -9.575181891784911,-5.0395694167289 m0.0,0.6719425888971875 l-1.6798564722429667,18.478421194672634 -0.16798564722429687,0.0 l7.05539718342046,-17.13453601687826 m0.5039569416728901,0.33597129444859597 l0.0,1.6798564722429665 -4.871583769504603,14.446765661289515 l-2.183813413915857,3.6956842389345255 -4.53561247505601,5.375540711177494 m1.5118708250186708,18.478421194672634 l-0.33597129444859375,0.6719425888971853 -0.16798564722429687,-0.6719425888971853 l-0.16798564722429687,-1.6798564722429665 0.8399282361214833,-7.727339772317648 " fill="none" stroke="black" stroke-width="1" /><path d="M25,32.39136847786905 m0.0,0.0 l0.0,-1.3438851777943728 0.5039569416728895,-1.3438851777943728 l1.6798564722429665,-1.343885177794375 16.294607780756778,-6.719425888971866 l-0.8399282361214833,1.007913883345779 -9.575181891784911,-5.0395694167289 m0.0,0.6719425888971875 l-1.6798564722429667,18.478421194672634 -0.16798564722429687,0.0 l7.05539718342046,-17.13453601687826 m0.5039569416728901,0.33597129444859597 l0.0,1.6798564722429665 -4.871583769504603,14.446765661289515 l-2.183813413915857,3.6956842389345255 -4.53561247505601,5.375540711177494 m1.5118708250186708,18.478421194672634 l-0.33597129444859375,0.6719425888971853 -0.16798564722429687,-0.6719425888971853 l-0.16798564722429687,-1.6798564722429665 0.8399282361214833,-7.727339772317648 m1.0079138833457801,-3.02374165003734 l1.679856472242967,-3.02374165003734 2.183813413915857,-2.0158277666915603 l2.183813413915857,-1.0079138833457801 4.0316555333831205,1.679856472242967 l0.5039569416728906,1.3438851777943732 -0.8399282361214838,2.0158277666915603 l-9.743167539009207,9.07122495011202 8.399282361214834,-3.02374165003734 l1.51187082501867,-2.687770355588747 -0.6719425888971869,-1.0079138833457801 l-3.52769859171023,-17.806478605775446 " fill="none" stroke="black" stroke-width="1" /><path d="M25,32.39136847786905 m0.0,0.0 l0.0,-1.3438851777943728 0.5039569416728895,-1.3438851777943728 l1.6798564722429665,-1.343885177794375 16.294607780756778,-6.719425888971866 l-0.8399282361214833,1.007913883345779 -9.575181891784911,-5.0395694167289 m0.0,0.6719425888971875 l-1.6798564722429667,18.478421194672634 -0.16798564722429687,0.0 l7.05539718342046,-17.13453601687826 m0.5039569416728901,0.33597129444859597 l0.0,1.6798564722429665 -4.871583769504603,14.446765661289515 l-2.183813413915857,3.6956842389345255 -4.53561247505601,5.375540711177494 m1.5118708250186708,18.478421194672634 l-0.33597129444859375,0.6719425888971853 -0.16798564722429687,-0.6719425888971853 l-0.16798564722429687,-1.6798564722429665 0.8399282361214833,-7.727339772317648 m1.0079138833457801,-3.02374165003734 l1.679856472242967,-3.02374165003734 2.183813413915857,-2.0158277666915603 l2.183813413915857,-1.0079138833457801 4.0316555333831205,1.679856472242967 l0.5039569416728906,1.3438851777943732 -0.8399282361214838,2.0158277666915603 l-9.743167539009207,9.07122495011202 8.399282361214834,-3.02374165003734 l1.51187082501867,-2.687770355588747 -0.6719425888971869,-1.0079138833457801 l-3.52769859171023,-17.806478605775446 m-0.8399282361214834,22.84604802250435 l-3.02374165003734,13.438851777943734 -1.3438851777943732,2.0158277666915625 l-1.5118708250186708,0.6719425888971831 -1.3438851777943728,-0.33597129444859153 l12.934894836270844,-7.055397183420462 1.175899530570077,-1.3438851777943728 l0.6719425888971864,-1.6798564722429665 -0.16798564722429687,-1.6798564722429665 l0.16798564722429687,-8.063311066766241 " fill="none" stroke="black" stroke-width="1" /><path d="M25,32.39136847786905 m0.0,0.0 l0.0,-1.3438851777943728 0.5039569416728895,-1.3438851777943728 l1.6798564722429665,-1.343885177794375 16.294607780756778,-6.719425888971866 l-0.8399282361214833,1.007913883345779 -9.575181891784911,-5.0395694167289 m0.0,0.6719425888971875 l-1.6798564722429667,18.478421194672634 -0.16798564722429687,0.0 l7.05539718342046,-17.13453601687826 m0.5039569416728901,0.33597129444859597 l0.0,1.6798564722429665 -4.871583769504603,14.446765661289515 l-2.183813413915857,3.6956842389345255 -4.53561247505601,5.375540711177494 m1.5118708250186708,18.478421194672634 l-0.33597129444859375,0.6719425888971853 -0.16798564722429687,-0.6719425888971853 l-0.16798564722429687,-1.6798564722429665 0.8399282361214833,-7.727339772317648 m1.0079138833457801,-3.02374165003734 l1.679856472242967,-3.02374165003734 2.183813413915857,-2.0158277666915603 l2.183813413915857,-1.0079138833457801 4.0316555333831205,1.679856472242967 l0.5039569416728906,1.3438851777943732 -0.8399282361214838,2.0158277666915603 l-9.743167539009207,9.07122495011202 8.399282361214834,-3.02374165003734 l1.51187082501867,-2.687770355588747 -0.6719425888971869,-1.0079138833457801 l-3.52769859171023,-17.806478605775446 m-0.8399282361214834,22.84604802250435 l-3.02374165003734,13.438851777943734 -1.3438851777943732,2.0158277666915625 l-1.5118708250186708,0.6719425888971831 -1.3438851777943728,-0.33597129444859153 l12.934894836270844,-7.055397183420462 1.175899530570077,-1.3438851777943728 l0.6719425888971864,-1.6798564722429665 -0.16798564722429687,-1.6798564722429665 l0.16798564722429687,-8.063311066766241 m0.33597129444859375,1.0079138833457806 l3.02374165003734,16.798564722429663 -0.5039569416728917,8.063311066766241 " fill="none" stroke="black" stroke-width="1" /><g filter="url(#id1)" transform="skewX(0) skewY(0) rotate(0)" /></svg>